M48
; DRILL file {KiCad 5.1.5-52549c5~84~ubuntu18.04.1} date dom 23 fev 2020 14:29:56 -03
; FORMAT={-:-/ absolute / inch / decimal}
; #@! TF.CreationDate,2020-02-23T14:29:56-03:00
; #@! TF.GenerationSoftware,Kicad,Pcbnew,5.1.5-52549c5~84~ubuntu18.04.1
; #@! TF.FileFunction,Plated,1,2,PTH
FMAT,2
INCH
T1C0.0150
%
G90
G05
T1
X4.57Y-2.33
X4.615Y-3.605
X4.63Y-4.02
X4.63Y-4.26
X4.65Y-2.655
X4.65Y-2.885
X4.695Y-4.02
X4.695Y-4.26
X4.7Y-2.765
X4.75Y-1.785
X4.75Y-1.975
X4.755Y-3.13
X4.755Y-3.7275
X4.755Y-3.875
X4.79Y-2.07
X4.805Y-3.6075
X4.805Y-3.7525
X4.815Y-3.05
X4.83Y-3.34
X4.835Y-2.47
X4.845Y-4.42
X4.845Y-4.53
X4.845Y-4.65
X4.865Y-3.52
X4.865Y-3.695
X4.9225Y-3.56
X4.9225Y-3.7075
X4.925Y-3.31
X4.925Y-3.4475
X4.935Y-1.785
X4.935Y-1.905
X4.96Y-5.04
X4.985Y-2.07
X5.005Y-3.05
X5.035Y-2.47
X5.0525Y-3.5275
X5.0525Y-3.595
X5.125Y-3.28
X5.125Y-3.345
X5.145Y-1.785
X5.15Y-4.255
X5.15Y-4.4025
X5.16Y-4.96
X5.185Y-2.07
X5.2Y-3.45
X5.2Y-4.01
X5.2Y-4.1575
X5.22Y-3.05
X5.235Y-2.47
X5.28Y-2.28
X5.28Y-2.47
X5.33Y-1.785
X5.33Y-1.905
X5.34Y-3.5225
X5.34Y-3.6675
X5.36Y-5.04
X5.3775Y-3.0075
X5.3775Y-3.15
X5.38Y-2.92
X5.405Y-2.28
X5.405Y-2.39
X5.44Y-1.785
X5.44Y-1.905
X5.4526Y-3.1169
X5.4975Y-3.97
X5.4975Y-4.12
X5.53Y-3.05
X5.56Y-4.96
X5.565Y-2.73
X5.57Y-1.785
X5.57Y-3.64
X5.5825Y-4.0475
X5.5825Y-4.195
X5.61Y-3.47
X5.65Y-2.815
X5.695Y-3.46
X5.695Y-3.605
X5.75Y-3.05
X5.76Y-5.04
X5.7676Y-3.5769
X5.81Y-3.28
X5.855Y-4.2275
X5.855Y-4.375
X5.8775Y-3.4125
X5.89Y-3.575
X5.895Y-1.785
X5.93Y-2.495
X5.93Y-2.605
X5.93Y-2.7475
X5.96Y-4.96
X5.965Y-1.85
X5.965Y-2.2
X6.0025Y-3.54
X6.035Y-2.07
X6.035Y-2.2
X6.05Y-3.665
X6.05Y-3.745
X6.075Y-2.65
X6.1Y-3.4625
X6.1Y-3.6
X6.115Y-1.785
X6.125Y-1.85
X6.125Y-2.2
X6.16Y-5.04
X6.195Y-2.25
X6.23Y-3.665
X6.245Y-3.54
X6.25Y-3.6
X6.275Y-2.7
X6.325Y-1.56
X6.325Y-2.2925
X6.325Y-3.83
X6.36Y-4.96
X6.415Y-2.2925
X6.425Y-2.7
X6.45Y-3.925
X6.451Y-1.811
X6.495Y-2.2725
X6.5225Y-2.15
X6.525Y-1.805
X6.54Y-1.765
X6.54Y-1.895
X6.5475Y-2.2175
X6.56Y-5.04
X6.57Y-3.4025
X6.573Y-1.732
X6.5825Y-2.15
X6.595Y-1.6
X6.63Y-3.8325
X6.63Y-3.9275
X6.635Y-3.725
X6.6825Y-1.7825
X6.7Y-1.658
X6.71Y-2.15
X6.719Y-1.732
X6.76Y-4.96
X6.765Y-1.87
X6.78Y-1.73
X6.8425Y-2.2975
X6.885Y-3.93
X6.8975Y-3.3225
X6.955Y-2.22
X6.96Y-5.04
X6.968Y-1.4365
X6.99Y-1.7625
X7.014Y-1.4805
X7.025Y-2.3
X7.03Y-3.88
X7.035Y-2.12
X7.059Y-1.5215
X7.135Y-2.9025
X7.14Y-2.4475
X7.14Y-3.92
X7.1425Y-2.6075
X7.155Y-2.0375
X7.1775Y-3.4525
X7.1775Y-3.55
X7.1775Y-3.6075
X7.1925Y-2.9025
X7.21Y-3.1625
X7.21Y-3.21
X7.21Y-3.2575
X7.22Y-3.4525
X7.22Y-3.55
X7.2225Y-2.6075
X7.2275Y-2.205
X7.2925Y-3.3325
X7.3025Y-1.5975
X7.3075Y-1.8975
X7.31Y-3.675
X7.36Y-3.74
X7.375Y-2.72
X7.375Y-2.82
X7.375Y-3.275
T0
M30
