G04 #@! TF.GenerationSoftware,KiCad,Pcbnew,5.1.5-52549c5~84~ubuntu18.04.1*
G04 #@! TF.CreationDate,2020-02-27T22:09:58-03:00*
G04 #@! TF.ProjectId,aquarius,61717561-7269-4757-932e-6b696361645f,0.0.0*
G04 #@! TF.SameCoordinates,Original*
G04 #@! TF.FileFunction,Soldermask,Top*
G04 #@! TF.FilePolarity,Negative*
%FSLAX46Y46*%
G04 Gerber Fmt 4.6, Leading zero omitted, Abs format (unit mm)*
G04 Created by KiCad (PCBNEW 5.1.5-52549c5~84~ubuntu18.04.1) date 2020-02-27 22:09:58*
%MOMM*%
%LPD*%
G04 APERTURE LIST*
%ADD10C,0.100000*%
G04 APERTURE END LIST*
D10*
G36*
X131115581Y-110244376D02*
G01*
X131139281Y-110247891D01*
X131162523Y-110253713D01*
X131185082Y-110261785D01*
X131206742Y-110272029D01*
X131227292Y-110284347D01*
X131246537Y-110298619D01*
X131264290Y-110314710D01*
X131280381Y-110332463D01*
X131294653Y-110351708D01*
X131306971Y-110372258D01*
X131317215Y-110393918D01*
X131325287Y-110416477D01*
X131331109Y-110439719D01*
X131334624Y-110463419D01*
X131335800Y-110487350D01*
X131335800Y-110975650D01*
X131334624Y-110999581D01*
X131331109Y-111023281D01*
X131325287Y-111046523D01*
X131317215Y-111069082D01*
X131306971Y-111090742D01*
X131294653Y-111111292D01*
X131280381Y-111130537D01*
X131264290Y-111148290D01*
X131246537Y-111164381D01*
X131227292Y-111178653D01*
X131206742Y-111190971D01*
X131185082Y-111201215D01*
X131162523Y-111209287D01*
X131139281Y-111215109D01*
X131115581Y-111218624D01*
X131091650Y-111219800D01*
X130528350Y-111219800D01*
X130504419Y-111218624D01*
X130480719Y-111215109D01*
X130457477Y-111209287D01*
X130434918Y-111201215D01*
X130413258Y-111190971D01*
X130392708Y-111178653D01*
X130373463Y-111164381D01*
X130355710Y-111148290D01*
X130339619Y-111130537D01*
X130325347Y-111111292D01*
X130313029Y-111090742D01*
X130302785Y-111069082D01*
X130294713Y-111046523D01*
X130288891Y-111023281D01*
X130285376Y-110999581D01*
X130284200Y-110975650D01*
X130284200Y-110487350D01*
X130285376Y-110463419D01*
X130288891Y-110439719D01*
X130294713Y-110416477D01*
X130302785Y-110393918D01*
X130313029Y-110372258D01*
X130325347Y-110351708D01*
X130339619Y-110332463D01*
X130355710Y-110314710D01*
X130373463Y-110298619D01*
X130392708Y-110284347D01*
X130413258Y-110272029D01*
X130434918Y-110261785D01*
X130457477Y-110253713D01*
X130480719Y-110247891D01*
X130504419Y-110244376D01*
X130528350Y-110243200D01*
X131091650Y-110243200D01*
X131115581Y-110244376D01*
G37*
G36*
X131115581Y-108669376D02*
G01*
X131139281Y-108672891D01*
X131162523Y-108678713D01*
X131185082Y-108686785D01*
X131206742Y-108697029D01*
X131227292Y-108709347D01*
X131246537Y-108723619D01*
X131264290Y-108739710D01*
X131280381Y-108757463D01*
X131294653Y-108776708D01*
X131306971Y-108797258D01*
X131317215Y-108818918D01*
X131325287Y-108841477D01*
X131331109Y-108864719D01*
X131334624Y-108888419D01*
X131335800Y-108912350D01*
X131335800Y-109400650D01*
X131334624Y-109424581D01*
X131331109Y-109448281D01*
X131325287Y-109471523D01*
X131317215Y-109494082D01*
X131306971Y-109515742D01*
X131294653Y-109536292D01*
X131280381Y-109555537D01*
X131264290Y-109573290D01*
X131246537Y-109589381D01*
X131227292Y-109603653D01*
X131206742Y-109615971D01*
X131185082Y-109626215D01*
X131162523Y-109634287D01*
X131139281Y-109640109D01*
X131115581Y-109643624D01*
X131091650Y-109644800D01*
X130528350Y-109644800D01*
X130504419Y-109643624D01*
X130480719Y-109640109D01*
X130457477Y-109634287D01*
X130434918Y-109626215D01*
X130413258Y-109615971D01*
X130392708Y-109603653D01*
X130373463Y-109589381D01*
X130355710Y-109573290D01*
X130339619Y-109555537D01*
X130325347Y-109536292D01*
X130313029Y-109515742D01*
X130302785Y-109494082D01*
X130294713Y-109471523D01*
X130288891Y-109448281D01*
X130285376Y-109424581D01*
X130284200Y-109400650D01*
X130284200Y-108912350D01*
X130285376Y-108888419D01*
X130288891Y-108864719D01*
X130294713Y-108841477D01*
X130302785Y-108818918D01*
X130313029Y-108797258D01*
X130325347Y-108776708D01*
X130339619Y-108757463D01*
X130355710Y-108739710D01*
X130373463Y-108723619D01*
X130392708Y-108709347D01*
X130413258Y-108697029D01*
X130434918Y-108686785D01*
X130457477Y-108678713D01*
X130480719Y-108672891D01*
X130504419Y-108669376D01*
X130528350Y-108668200D01*
X131091650Y-108668200D01*
X131115581Y-108669376D01*
G37*
G36*
X132385581Y-104033876D02*
G01*
X132409281Y-104037391D01*
X132432523Y-104043213D01*
X132455082Y-104051285D01*
X132476742Y-104061529D01*
X132497292Y-104073847D01*
X132516537Y-104088119D01*
X132534290Y-104104210D01*
X132550381Y-104121963D01*
X132564653Y-104141208D01*
X132576971Y-104161758D01*
X132587215Y-104183418D01*
X132595287Y-104205977D01*
X132601109Y-104229219D01*
X132604624Y-104252919D01*
X132605800Y-104276850D01*
X132605800Y-104765150D01*
X132604624Y-104789081D01*
X132601109Y-104812781D01*
X132595287Y-104836023D01*
X132587215Y-104858582D01*
X132576971Y-104880242D01*
X132564653Y-104900792D01*
X132550381Y-104920037D01*
X132534290Y-104937790D01*
X132516537Y-104953881D01*
X132497292Y-104968153D01*
X132476742Y-104980471D01*
X132455082Y-104990715D01*
X132432523Y-104998787D01*
X132409281Y-105004609D01*
X132385581Y-105008124D01*
X132361650Y-105009300D01*
X131798350Y-105009300D01*
X131774419Y-105008124D01*
X131750719Y-105004609D01*
X131727477Y-104998787D01*
X131704918Y-104990715D01*
X131683258Y-104980471D01*
X131662708Y-104968153D01*
X131643463Y-104953881D01*
X131625710Y-104937790D01*
X131609619Y-104920037D01*
X131595347Y-104900792D01*
X131583029Y-104880242D01*
X131572785Y-104858582D01*
X131564713Y-104836023D01*
X131558891Y-104812781D01*
X131555376Y-104789081D01*
X131554200Y-104765150D01*
X131554200Y-104276850D01*
X131555376Y-104252919D01*
X131558891Y-104229219D01*
X131564713Y-104205977D01*
X131572785Y-104183418D01*
X131583029Y-104161758D01*
X131595347Y-104141208D01*
X131609619Y-104121963D01*
X131625710Y-104104210D01*
X131643463Y-104088119D01*
X131662708Y-104073847D01*
X131683258Y-104061529D01*
X131704918Y-104051285D01*
X131727477Y-104043213D01*
X131750719Y-104037391D01*
X131774419Y-104033876D01*
X131798350Y-104032700D01*
X132361650Y-104032700D01*
X132385581Y-104033876D01*
G37*
G36*
X132385581Y-102458876D02*
G01*
X132409281Y-102462391D01*
X132432523Y-102468213D01*
X132455082Y-102476285D01*
X132476742Y-102486529D01*
X132497292Y-102498847D01*
X132516537Y-102513119D01*
X132534290Y-102529210D01*
X132550381Y-102546963D01*
X132564653Y-102566208D01*
X132576971Y-102586758D01*
X132587215Y-102608418D01*
X132595287Y-102630977D01*
X132601109Y-102654219D01*
X132604624Y-102677919D01*
X132605800Y-102701850D01*
X132605800Y-103190150D01*
X132604624Y-103214081D01*
X132601109Y-103237781D01*
X132595287Y-103261023D01*
X132587215Y-103283582D01*
X132576971Y-103305242D01*
X132564653Y-103325792D01*
X132550381Y-103345037D01*
X132534290Y-103362790D01*
X132516537Y-103378881D01*
X132497292Y-103393153D01*
X132476742Y-103405471D01*
X132455082Y-103415715D01*
X132432523Y-103423787D01*
X132409281Y-103429609D01*
X132385581Y-103433124D01*
X132361650Y-103434300D01*
X131798350Y-103434300D01*
X131774419Y-103433124D01*
X131750719Y-103429609D01*
X131727477Y-103423787D01*
X131704918Y-103415715D01*
X131683258Y-103405471D01*
X131662708Y-103393153D01*
X131643463Y-103378881D01*
X131625710Y-103362790D01*
X131609619Y-103345037D01*
X131595347Y-103325792D01*
X131583029Y-103305242D01*
X131572785Y-103283582D01*
X131564713Y-103261023D01*
X131558891Y-103237781D01*
X131555376Y-103214081D01*
X131554200Y-103190150D01*
X131554200Y-102701850D01*
X131555376Y-102677919D01*
X131558891Y-102654219D01*
X131564713Y-102630977D01*
X131572785Y-102608418D01*
X131583029Y-102586758D01*
X131595347Y-102566208D01*
X131609619Y-102546963D01*
X131625710Y-102529210D01*
X131643463Y-102513119D01*
X131662708Y-102498847D01*
X131683258Y-102486529D01*
X131704918Y-102476285D01*
X131727477Y-102468213D01*
X131750719Y-102462391D01*
X131774419Y-102458876D01*
X131798350Y-102457700D01*
X132361650Y-102457700D01*
X132385581Y-102458876D01*
G37*
G36*
X139942081Y-103081376D02*
G01*
X139965781Y-103084891D01*
X139989023Y-103090713D01*
X140011582Y-103098785D01*
X140033242Y-103109029D01*
X140053792Y-103121347D01*
X140073037Y-103135619D01*
X140090790Y-103151710D01*
X140106881Y-103169463D01*
X140121153Y-103188708D01*
X140133471Y-103209258D01*
X140143715Y-103230918D01*
X140151787Y-103253477D01*
X140157609Y-103276719D01*
X140161124Y-103300419D01*
X140162300Y-103324350D01*
X140162300Y-103812650D01*
X140161124Y-103836581D01*
X140157609Y-103860281D01*
X140151787Y-103883523D01*
X140143715Y-103906082D01*
X140133471Y-103927742D01*
X140121153Y-103948292D01*
X140106881Y-103967537D01*
X140090790Y-103985290D01*
X140073037Y-104001381D01*
X140053792Y-104015653D01*
X140033242Y-104027971D01*
X140011582Y-104038215D01*
X139989023Y-104046287D01*
X139965781Y-104052109D01*
X139942081Y-104055624D01*
X139918150Y-104056800D01*
X139354850Y-104056800D01*
X139330919Y-104055624D01*
X139307219Y-104052109D01*
X139283977Y-104046287D01*
X139261418Y-104038215D01*
X139239758Y-104027971D01*
X139219208Y-104015653D01*
X139199963Y-104001381D01*
X139182210Y-103985290D01*
X139166119Y-103967537D01*
X139151847Y-103948292D01*
X139139529Y-103927742D01*
X139129285Y-103906082D01*
X139121213Y-103883523D01*
X139115391Y-103860281D01*
X139111876Y-103836581D01*
X139110700Y-103812650D01*
X139110700Y-103324350D01*
X139111876Y-103300419D01*
X139115391Y-103276719D01*
X139121213Y-103253477D01*
X139129285Y-103230918D01*
X139139529Y-103209258D01*
X139151847Y-103188708D01*
X139166119Y-103169463D01*
X139182210Y-103151710D01*
X139199963Y-103135619D01*
X139219208Y-103121347D01*
X139239758Y-103109029D01*
X139261418Y-103098785D01*
X139283977Y-103090713D01*
X139307219Y-103084891D01*
X139330919Y-103081376D01*
X139354850Y-103080200D01*
X139918150Y-103080200D01*
X139942081Y-103081376D01*
G37*
G36*
X139942081Y-101506376D02*
G01*
X139965781Y-101509891D01*
X139989023Y-101515713D01*
X140011582Y-101523785D01*
X140033242Y-101534029D01*
X140053792Y-101546347D01*
X140073037Y-101560619D01*
X140090790Y-101576710D01*
X140106881Y-101594463D01*
X140121153Y-101613708D01*
X140133471Y-101634258D01*
X140143715Y-101655918D01*
X140151787Y-101678477D01*
X140157609Y-101701719D01*
X140161124Y-101725419D01*
X140162300Y-101749350D01*
X140162300Y-102237650D01*
X140161124Y-102261581D01*
X140157609Y-102285281D01*
X140151787Y-102308523D01*
X140143715Y-102331082D01*
X140133471Y-102352742D01*
X140121153Y-102373292D01*
X140106881Y-102392537D01*
X140090790Y-102410290D01*
X140073037Y-102426381D01*
X140053792Y-102440653D01*
X140033242Y-102452971D01*
X140011582Y-102463215D01*
X139989023Y-102471287D01*
X139965781Y-102477109D01*
X139942081Y-102480624D01*
X139918150Y-102481800D01*
X139354850Y-102481800D01*
X139330919Y-102480624D01*
X139307219Y-102477109D01*
X139283977Y-102471287D01*
X139261418Y-102463215D01*
X139239758Y-102452971D01*
X139219208Y-102440653D01*
X139199963Y-102426381D01*
X139182210Y-102410290D01*
X139166119Y-102392537D01*
X139151847Y-102373292D01*
X139139529Y-102352742D01*
X139129285Y-102331082D01*
X139121213Y-102308523D01*
X139115391Y-102285281D01*
X139111876Y-102261581D01*
X139110700Y-102237650D01*
X139110700Y-101749350D01*
X139111876Y-101725419D01*
X139115391Y-101701719D01*
X139121213Y-101678477D01*
X139129285Y-101655918D01*
X139139529Y-101634258D01*
X139151847Y-101613708D01*
X139166119Y-101594463D01*
X139182210Y-101576710D01*
X139199963Y-101560619D01*
X139219208Y-101546347D01*
X139239758Y-101534029D01*
X139261418Y-101523785D01*
X139283977Y-101515713D01*
X139307219Y-101509891D01*
X139330919Y-101506376D01*
X139354850Y-101505200D01*
X139918150Y-101505200D01*
X139942081Y-101506376D01*
G37*
G36*
X142101081Y-104986376D02*
G01*
X142124781Y-104989891D01*
X142148023Y-104995713D01*
X142170582Y-105003785D01*
X142192242Y-105014029D01*
X142212792Y-105026347D01*
X142232037Y-105040619D01*
X142249790Y-105056710D01*
X142265881Y-105074463D01*
X142280153Y-105093708D01*
X142292471Y-105114258D01*
X142302715Y-105135918D01*
X142310787Y-105158477D01*
X142316609Y-105181719D01*
X142320124Y-105205419D01*
X142321300Y-105229350D01*
X142321300Y-105717650D01*
X142320124Y-105741581D01*
X142316609Y-105765281D01*
X142310787Y-105788523D01*
X142302715Y-105811082D01*
X142292471Y-105832742D01*
X142280153Y-105853292D01*
X142265881Y-105872537D01*
X142249790Y-105890290D01*
X142232037Y-105906381D01*
X142212792Y-105920653D01*
X142192242Y-105932971D01*
X142170582Y-105943215D01*
X142148023Y-105951287D01*
X142124781Y-105957109D01*
X142101081Y-105960624D01*
X142077150Y-105961800D01*
X141513850Y-105961800D01*
X141489919Y-105960624D01*
X141466219Y-105957109D01*
X141442977Y-105951287D01*
X141420418Y-105943215D01*
X141398758Y-105932971D01*
X141378208Y-105920653D01*
X141358963Y-105906381D01*
X141341210Y-105890290D01*
X141325119Y-105872537D01*
X141310847Y-105853292D01*
X141298529Y-105832742D01*
X141288285Y-105811082D01*
X141280213Y-105788523D01*
X141274391Y-105765281D01*
X141270876Y-105741581D01*
X141269700Y-105717650D01*
X141269700Y-105229350D01*
X141270876Y-105205419D01*
X141274391Y-105181719D01*
X141280213Y-105158477D01*
X141288285Y-105135918D01*
X141298529Y-105114258D01*
X141310847Y-105093708D01*
X141325119Y-105074463D01*
X141341210Y-105056710D01*
X141358963Y-105040619D01*
X141378208Y-105026347D01*
X141398758Y-105014029D01*
X141420418Y-105003785D01*
X141442977Y-104995713D01*
X141466219Y-104989891D01*
X141489919Y-104986376D01*
X141513850Y-104985200D01*
X142077150Y-104985200D01*
X142101081Y-104986376D01*
G37*
G36*
X142101081Y-103411376D02*
G01*
X142124781Y-103414891D01*
X142148023Y-103420713D01*
X142170582Y-103428785D01*
X142192242Y-103439029D01*
X142212792Y-103451347D01*
X142232037Y-103465619D01*
X142249790Y-103481710D01*
X142265881Y-103499463D01*
X142280153Y-103518708D01*
X142292471Y-103539258D01*
X142302715Y-103560918D01*
X142310787Y-103583477D01*
X142316609Y-103606719D01*
X142320124Y-103630419D01*
X142321300Y-103654350D01*
X142321300Y-104142650D01*
X142320124Y-104166581D01*
X142316609Y-104190281D01*
X142310787Y-104213523D01*
X142302715Y-104236082D01*
X142292471Y-104257742D01*
X142280153Y-104278292D01*
X142265881Y-104297537D01*
X142249790Y-104315290D01*
X142232037Y-104331381D01*
X142212792Y-104345653D01*
X142192242Y-104357971D01*
X142170582Y-104368215D01*
X142148023Y-104376287D01*
X142124781Y-104382109D01*
X142101081Y-104385624D01*
X142077150Y-104386800D01*
X141513850Y-104386800D01*
X141489919Y-104385624D01*
X141466219Y-104382109D01*
X141442977Y-104376287D01*
X141420418Y-104368215D01*
X141398758Y-104357971D01*
X141378208Y-104345653D01*
X141358963Y-104331381D01*
X141341210Y-104315290D01*
X141325119Y-104297537D01*
X141310847Y-104278292D01*
X141298529Y-104257742D01*
X141288285Y-104236082D01*
X141280213Y-104213523D01*
X141274391Y-104190281D01*
X141270876Y-104166581D01*
X141269700Y-104142650D01*
X141269700Y-103654350D01*
X141270876Y-103630419D01*
X141274391Y-103606719D01*
X141280213Y-103583477D01*
X141288285Y-103560918D01*
X141298529Y-103539258D01*
X141310847Y-103518708D01*
X141325119Y-103499463D01*
X141341210Y-103481710D01*
X141358963Y-103465619D01*
X141378208Y-103451347D01*
X141398758Y-103439029D01*
X141420418Y-103428785D01*
X141442977Y-103420713D01*
X141466219Y-103414891D01*
X141489919Y-103411376D01*
X141513850Y-103410200D01*
X142077150Y-103410200D01*
X142101081Y-103411376D01*
G37*
G36*
X149022581Y-109520376D02*
G01*
X149046281Y-109523891D01*
X149069523Y-109529713D01*
X149092082Y-109537785D01*
X149113742Y-109548029D01*
X149134292Y-109560347D01*
X149153537Y-109574619D01*
X149171290Y-109590710D01*
X149187381Y-109608463D01*
X149201653Y-109627708D01*
X149213971Y-109648258D01*
X149224215Y-109669918D01*
X149232287Y-109692477D01*
X149238109Y-109715719D01*
X149241624Y-109739419D01*
X149242800Y-109763350D01*
X149242800Y-110251650D01*
X149241624Y-110275581D01*
X149238109Y-110299281D01*
X149232287Y-110322523D01*
X149224215Y-110345082D01*
X149213971Y-110366742D01*
X149201653Y-110387292D01*
X149187381Y-110406537D01*
X149171290Y-110424290D01*
X149153537Y-110440381D01*
X149134292Y-110454653D01*
X149113742Y-110466971D01*
X149092082Y-110477215D01*
X149069523Y-110485287D01*
X149046281Y-110491109D01*
X149022581Y-110494624D01*
X148998650Y-110495800D01*
X148435350Y-110495800D01*
X148411419Y-110494624D01*
X148387719Y-110491109D01*
X148364477Y-110485287D01*
X148341918Y-110477215D01*
X148320258Y-110466971D01*
X148299708Y-110454653D01*
X148280463Y-110440381D01*
X148262710Y-110424290D01*
X148246619Y-110406537D01*
X148232347Y-110387292D01*
X148220029Y-110366742D01*
X148209785Y-110345082D01*
X148201713Y-110322523D01*
X148195891Y-110299281D01*
X148192376Y-110275581D01*
X148191200Y-110251650D01*
X148191200Y-109763350D01*
X148192376Y-109739419D01*
X148195891Y-109715719D01*
X148201713Y-109692477D01*
X148209785Y-109669918D01*
X148220029Y-109648258D01*
X148232347Y-109627708D01*
X148246619Y-109608463D01*
X148262710Y-109590710D01*
X148280463Y-109574619D01*
X148299708Y-109560347D01*
X148320258Y-109548029D01*
X148341918Y-109537785D01*
X148364477Y-109529713D01*
X148387719Y-109523891D01*
X148411419Y-109520376D01*
X148435350Y-109519200D01*
X148998650Y-109519200D01*
X149022581Y-109520376D01*
G37*
G36*
X149022581Y-107945376D02*
G01*
X149046281Y-107948891D01*
X149069523Y-107954713D01*
X149092082Y-107962785D01*
X149113742Y-107973029D01*
X149134292Y-107985347D01*
X149153537Y-107999619D01*
X149171290Y-108015710D01*
X149187381Y-108033463D01*
X149201653Y-108052708D01*
X149213971Y-108073258D01*
X149224215Y-108094918D01*
X149232287Y-108117477D01*
X149238109Y-108140719D01*
X149241624Y-108164419D01*
X149242800Y-108188350D01*
X149242800Y-108676650D01*
X149241624Y-108700581D01*
X149238109Y-108724281D01*
X149232287Y-108747523D01*
X149224215Y-108770082D01*
X149213971Y-108791742D01*
X149201653Y-108812292D01*
X149187381Y-108831537D01*
X149171290Y-108849290D01*
X149153537Y-108865381D01*
X149134292Y-108879653D01*
X149113742Y-108891971D01*
X149092082Y-108902215D01*
X149069523Y-108910287D01*
X149046281Y-108916109D01*
X149022581Y-108919624D01*
X148998650Y-108920800D01*
X148435350Y-108920800D01*
X148411419Y-108919624D01*
X148387719Y-108916109D01*
X148364477Y-108910287D01*
X148341918Y-108902215D01*
X148320258Y-108891971D01*
X148299708Y-108879653D01*
X148280463Y-108865381D01*
X148262710Y-108849290D01*
X148246619Y-108831537D01*
X148232347Y-108812292D01*
X148220029Y-108791742D01*
X148209785Y-108770082D01*
X148201713Y-108747523D01*
X148195891Y-108724281D01*
X148192376Y-108700581D01*
X148191200Y-108676650D01*
X148191200Y-108188350D01*
X148192376Y-108164419D01*
X148195891Y-108140719D01*
X148201713Y-108117477D01*
X148209785Y-108094918D01*
X148220029Y-108073258D01*
X148232347Y-108052708D01*
X148246619Y-108033463D01*
X148262710Y-108015710D01*
X148280463Y-107999619D01*
X148299708Y-107985347D01*
X148320258Y-107973029D01*
X148341918Y-107962785D01*
X148364477Y-107954713D01*
X148387719Y-107948891D01*
X148411419Y-107945376D01*
X148435350Y-107944200D01*
X148998650Y-107944200D01*
X149022581Y-107945376D01*
G37*
G36*
X121082581Y-96845876D02*
G01*
X121106281Y-96849391D01*
X121129523Y-96855213D01*
X121152082Y-96863285D01*
X121173742Y-96873529D01*
X121194292Y-96885847D01*
X121213537Y-96900119D01*
X121231290Y-96916210D01*
X121247381Y-96933963D01*
X121261653Y-96953208D01*
X121273971Y-96973758D01*
X121284215Y-96995418D01*
X121292287Y-97017977D01*
X121298109Y-97041219D01*
X121301624Y-97064919D01*
X121302800Y-97088850D01*
X121302800Y-97577150D01*
X121301624Y-97601081D01*
X121298109Y-97624781D01*
X121292287Y-97648023D01*
X121284215Y-97670582D01*
X121273971Y-97692242D01*
X121261653Y-97712792D01*
X121247381Y-97732037D01*
X121231290Y-97749790D01*
X121213537Y-97765881D01*
X121194292Y-97780153D01*
X121173742Y-97792471D01*
X121152082Y-97802715D01*
X121129523Y-97810787D01*
X121106281Y-97816609D01*
X121082581Y-97820124D01*
X121058650Y-97821300D01*
X120495350Y-97821300D01*
X120471419Y-97820124D01*
X120447719Y-97816609D01*
X120424477Y-97810787D01*
X120401918Y-97802715D01*
X120380258Y-97792471D01*
X120359708Y-97780153D01*
X120340463Y-97765881D01*
X120322710Y-97749790D01*
X120306619Y-97732037D01*
X120292347Y-97712792D01*
X120280029Y-97692242D01*
X120269785Y-97670582D01*
X120261713Y-97648023D01*
X120255891Y-97624781D01*
X120252376Y-97601081D01*
X120251200Y-97577150D01*
X120251200Y-97088850D01*
X120252376Y-97064919D01*
X120255891Y-97041219D01*
X120261713Y-97017977D01*
X120269785Y-96995418D01*
X120280029Y-96973758D01*
X120292347Y-96953208D01*
X120306619Y-96933963D01*
X120322710Y-96916210D01*
X120340463Y-96900119D01*
X120359708Y-96885847D01*
X120380258Y-96873529D01*
X120401918Y-96863285D01*
X120424477Y-96855213D01*
X120447719Y-96849391D01*
X120471419Y-96845876D01*
X120495350Y-96844700D01*
X121058650Y-96844700D01*
X121082581Y-96845876D01*
G37*
G36*
X121082581Y-95270876D02*
G01*
X121106281Y-95274391D01*
X121129523Y-95280213D01*
X121152082Y-95288285D01*
X121173742Y-95298529D01*
X121194292Y-95310847D01*
X121213537Y-95325119D01*
X121231290Y-95341210D01*
X121247381Y-95358963D01*
X121261653Y-95378208D01*
X121273971Y-95398758D01*
X121284215Y-95420418D01*
X121292287Y-95442977D01*
X121298109Y-95466219D01*
X121301624Y-95489919D01*
X121302800Y-95513850D01*
X121302800Y-96002150D01*
X121301624Y-96026081D01*
X121298109Y-96049781D01*
X121292287Y-96073023D01*
X121284215Y-96095582D01*
X121273971Y-96117242D01*
X121261653Y-96137792D01*
X121247381Y-96157037D01*
X121231290Y-96174790D01*
X121213537Y-96190881D01*
X121194292Y-96205153D01*
X121173742Y-96217471D01*
X121152082Y-96227715D01*
X121129523Y-96235787D01*
X121106281Y-96241609D01*
X121082581Y-96245124D01*
X121058650Y-96246300D01*
X120495350Y-96246300D01*
X120471419Y-96245124D01*
X120447719Y-96241609D01*
X120424477Y-96235787D01*
X120401918Y-96227715D01*
X120380258Y-96217471D01*
X120359708Y-96205153D01*
X120340463Y-96190881D01*
X120322710Y-96174790D01*
X120306619Y-96157037D01*
X120292347Y-96137792D01*
X120280029Y-96117242D01*
X120269785Y-96095582D01*
X120261713Y-96073023D01*
X120255891Y-96049781D01*
X120252376Y-96026081D01*
X120251200Y-96002150D01*
X120251200Y-95513850D01*
X120252376Y-95489919D01*
X120255891Y-95466219D01*
X120261713Y-95442977D01*
X120269785Y-95420418D01*
X120280029Y-95398758D01*
X120292347Y-95378208D01*
X120306619Y-95358963D01*
X120322710Y-95341210D01*
X120340463Y-95325119D01*
X120359708Y-95310847D01*
X120380258Y-95298529D01*
X120401918Y-95288285D01*
X120424477Y-95280213D01*
X120447719Y-95274391D01*
X120471419Y-95270876D01*
X120495350Y-95269700D01*
X121058650Y-95269700D01*
X121082581Y-95270876D01*
G37*
G36*
X122352581Y-93772376D02*
G01*
X122376281Y-93775891D01*
X122399523Y-93781713D01*
X122422082Y-93789785D01*
X122443742Y-93800029D01*
X122464292Y-93812347D01*
X122483537Y-93826619D01*
X122501290Y-93842710D01*
X122517381Y-93860463D01*
X122531653Y-93879708D01*
X122543971Y-93900258D01*
X122554215Y-93921918D01*
X122562287Y-93944477D01*
X122568109Y-93967719D01*
X122571624Y-93991419D01*
X122572800Y-94015350D01*
X122572800Y-94503650D01*
X122571624Y-94527581D01*
X122568109Y-94551281D01*
X122562287Y-94574523D01*
X122554215Y-94597082D01*
X122543971Y-94618742D01*
X122531653Y-94639292D01*
X122517381Y-94658537D01*
X122501290Y-94676290D01*
X122483537Y-94692381D01*
X122464292Y-94706653D01*
X122443742Y-94718971D01*
X122422082Y-94729215D01*
X122399523Y-94737287D01*
X122376281Y-94743109D01*
X122352581Y-94746624D01*
X122328650Y-94747800D01*
X121765350Y-94747800D01*
X121741419Y-94746624D01*
X121717719Y-94743109D01*
X121694477Y-94737287D01*
X121671918Y-94729215D01*
X121650258Y-94718971D01*
X121629708Y-94706653D01*
X121610463Y-94692381D01*
X121592710Y-94676290D01*
X121576619Y-94658537D01*
X121562347Y-94639292D01*
X121550029Y-94618742D01*
X121539785Y-94597082D01*
X121531713Y-94574523D01*
X121525891Y-94551281D01*
X121522376Y-94527581D01*
X121521200Y-94503650D01*
X121521200Y-94015350D01*
X121522376Y-93991419D01*
X121525891Y-93967719D01*
X121531713Y-93944477D01*
X121539785Y-93921918D01*
X121550029Y-93900258D01*
X121562347Y-93879708D01*
X121576619Y-93860463D01*
X121592710Y-93842710D01*
X121610463Y-93826619D01*
X121629708Y-93812347D01*
X121650258Y-93800029D01*
X121671918Y-93789785D01*
X121694477Y-93781713D01*
X121717719Y-93775891D01*
X121741419Y-93772376D01*
X121765350Y-93771200D01*
X122328650Y-93771200D01*
X122352581Y-93772376D01*
G37*
G36*
X122352581Y-92197376D02*
G01*
X122376281Y-92200891D01*
X122399523Y-92206713D01*
X122422082Y-92214785D01*
X122443742Y-92225029D01*
X122464292Y-92237347D01*
X122483537Y-92251619D01*
X122501290Y-92267710D01*
X122517381Y-92285463D01*
X122531653Y-92304708D01*
X122543971Y-92325258D01*
X122554215Y-92346918D01*
X122562287Y-92369477D01*
X122568109Y-92392719D01*
X122571624Y-92416419D01*
X122572800Y-92440350D01*
X122572800Y-92928650D01*
X122571624Y-92952581D01*
X122568109Y-92976281D01*
X122562287Y-92999523D01*
X122554215Y-93022082D01*
X122543971Y-93043742D01*
X122531653Y-93064292D01*
X122517381Y-93083537D01*
X122501290Y-93101290D01*
X122483537Y-93117381D01*
X122464292Y-93131653D01*
X122443742Y-93143971D01*
X122422082Y-93154215D01*
X122399523Y-93162287D01*
X122376281Y-93168109D01*
X122352581Y-93171624D01*
X122328650Y-93172800D01*
X121765350Y-93172800D01*
X121741419Y-93171624D01*
X121717719Y-93168109D01*
X121694477Y-93162287D01*
X121671918Y-93154215D01*
X121650258Y-93143971D01*
X121629708Y-93131653D01*
X121610463Y-93117381D01*
X121592710Y-93101290D01*
X121576619Y-93083537D01*
X121562347Y-93064292D01*
X121550029Y-93043742D01*
X121539785Y-93022082D01*
X121531713Y-92999523D01*
X121525891Y-92976281D01*
X121522376Y-92952581D01*
X121521200Y-92928650D01*
X121521200Y-92440350D01*
X121522376Y-92416419D01*
X121525891Y-92392719D01*
X121531713Y-92369477D01*
X121539785Y-92346918D01*
X121550029Y-92325258D01*
X121562347Y-92304708D01*
X121576619Y-92285463D01*
X121592710Y-92267710D01*
X121610463Y-92251619D01*
X121629708Y-92237347D01*
X121650258Y-92225029D01*
X121671918Y-92214785D01*
X121694477Y-92206713D01*
X121717719Y-92200891D01*
X121741419Y-92197376D01*
X121765350Y-92196200D01*
X122328650Y-92196200D01*
X122352581Y-92197376D01*
G37*
G36*
X125337081Y-92603876D02*
G01*
X125360781Y-92607391D01*
X125384023Y-92613213D01*
X125406582Y-92621285D01*
X125428242Y-92631529D01*
X125448792Y-92643847D01*
X125468037Y-92658119D01*
X125485790Y-92674210D01*
X125501881Y-92691963D01*
X125516153Y-92711208D01*
X125528471Y-92731758D01*
X125538715Y-92753418D01*
X125546787Y-92775977D01*
X125552609Y-92799219D01*
X125556124Y-92822919D01*
X125557300Y-92846850D01*
X125557300Y-93335150D01*
X125556124Y-93359081D01*
X125552609Y-93382781D01*
X125546787Y-93406023D01*
X125538715Y-93428582D01*
X125528471Y-93450242D01*
X125516153Y-93470792D01*
X125501881Y-93490037D01*
X125485790Y-93507790D01*
X125468037Y-93523881D01*
X125448792Y-93538153D01*
X125428242Y-93550471D01*
X125406582Y-93560715D01*
X125384023Y-93568787D01*
X125360781Y-93574609D01*
X125337081Y-93578124D01*
X125313150Y-93579300D01*
X124749850Y-93579300D01*
X124725919Y-93578124D01*
X124702219Y-93574609D01*
X124678977Y-93568787D01*
X124656418Y-93560715D01*
X124634758Y-93550471D01*
X124614208Y-93538153D01*
X124594963Y-93523881D01*
X124577210Y-93507790D01*
X124561119Y-93490037D01*
X124546847Y-93470792D01*
X124534529Y-93450242D01*
X124524285Y-93428582D01*
X124516213Y-93406023D01*
X124510391Y-93382781D01*
X124506876Y-93359081D01*
X124505700Y-93335150D01*
X124505700Y-92846850D01*
X124506876Y-92822919D01*
X124510391Y-92799219D01*
X124516213Y-92775977D01*
X124524285Y-92753418D01*
X124534529Y-92731758D01*
X124546847Y-92711208D01*
X124561119Y-92691963D01*
X124577210Y-92674210D01*
X124594963Y-92658119D01*
X124614208Y-92643847D01*
X124634758Y-92631529D01*
X124656418Y-92621285D01*
X124678977Y-92613213D01*
X124702219Y-92607391D01*
X124725919Y-92603876D01*
X124749850Y-92602700D01*
X125313150Y-92602700D01*
X125337081Y-92603876D01*
G37*
G36*
X125337081Y-91028876D02*
G01*
X125360781Y-91032391D01*
X125384023Y-91038213D01*
X125406582Y-91046285D01*
X125428242Y-91056529D01*
X125448792Y-91068847D01*
X125468037Y-91083119D01*
X125485790Y-91099210D01*
X125501881Y-91116963D01*
X125516153Y-91136208D01*
X125528471Y-91156758D01*
X125538715Y-91178418D01*
X125546787Y-91200977D01*
X125552609Y-91224219D01*
X125556124Y-91247919D01*
X125557300Y-91271850D01*
X125557300Y-91760150D01*
X125556124Y-91784081D01*
X125552609Y-91807781D01*
X125546787Y-91831023D01*
X125538715Y-91853582D01*
X125528471Y-91875242D01*
X125516153Y-91895792D01*
X125501881Y-91915037D01*
X125485790Y-91932790D01*
X125468037Y-91948881D01*
X125448792Y-91963153D01*
X125428242Y-91975471D01*
X125406582Y-91985715D01*
X125384023Y-91993787D01*
X125360781Y-91999609D01*
X125337081Y-92003124D01*
X125313150Y-92004300D01*
X124749850Y-92004300D01*
X124725919Y-92003124D01*
X124702219Y-91999609D01*
X124678977Y-91993787D01*
X124656418Y-91985715D01*
X124634758Y-91975471D01*
X124614208Y-91963153D01*
X124594963Y-91948881D01*
X124577210Y-91932790D01*
X124561119Y-91915037D01*
X124546847Y-91895792D01*
X124534529Y-91875242D01*
X124524285Y-91853582D01*
X124516213Y-91831023D01*
X124510391Y-91807781D01*
X124506876Y-91784081D01*
X124505700Y-91760150D01*
X124505700Y-91271850D01*
X124506876Y-91247919D01*
X124510391Y-91224219D01*
X124516213Y-91200977D01*
X124524285Y-91178418D01*
X124534529Y-91156758D01*
X124546847Y-91136208D01*
X124561119Y-91116963D01*
X124577210Y-91099210D01*
X124594963Y-91083119D01*
X124614208Y-91068847D01*
X124634758Y-91056529D01*
X124656418Y-91046285D01*
X124678977Y-91038213D01*
X124702219Y-91032391D01*
X124725919Y-91028876D01*
X124749850Y-91027700D01*
X125313150Y-91027700D01*
X125337081Y-91028876D01*
G37*
G36*
X144958581Y-90051376D02*
G01*
X144982281Y-90054891D01*
X145005523Y-90060713D01*
X145028082Y-90068785D01*
X145049742Y-90079029D01*
X145070292Y-90091347D01*
X145089537Y-90105619D01*
X145107290Y-90121710D01*
X145123381Y-90139463D01*
X145137653Y-90158708D01*
X145149971Y-90179258D01*
X145160215Y-90200918D01*
X145168287Y-90223477D01*
X145174109Y-90246719D01*
X145177624Y-90270419D01*
X145178800Y-90294350D01*
X145178800Y-90782650D01*
X145177624Y-90806581D01*
X145174109Y-90830281D01*
X145168287Y-90853523D01*
X145160215Y-90876082D01*
X145149971Y-90897742D01*
X145137653Y-90918292D01*
X145123381Y-90937537D01*
X145107290Y-90955290D01*
X145089537Y-90971381D01*
X145070292Y-90985653D01*
X145049742Y-90997971D01*
X145028082Y-91008215D01*
X145005523Y-91016287D01*
X144982281Y-91022109D01*
X144958581Y-91025624D01*
X144934650Y-91026800D01*
X144371350Y-91026800D01*
X144347419Y-91025624D01*
X144323719Y-91022109D01*
X144300477Y-91016287D01*
X144277918Y-91008215D01*
X144256258Y-90997971D01*
X144235708Y-90985653D01*
X144216463Y-90971381D01*
X144198710Y-90955290D01*
X144182619Y-90937537D01*
X144168347Y-90918292D01*
X144156029Y-90897742D01*
X144145785Y-90876082D01*
X144137713Y-90853523D01*
X144131891Y-90830281D01*
X144128376Y-90806581D01*
X144127200Y-90782650D01*
X144127200Y-90294350D01*
X144128376Y-90270419D01*
X144131891Y-90246719D01*
X144137713Y-90223477D01*
X144145785Y-90200918D01*
X144156029Y-90179258D01*
X144168347Y-90158708D01*
X144182619Y-90139463D01*
X144198710Y-90121710D01*
X144216463Y-90105619D01*
X144235708Y-90091347D01*
X144256258Y-90079029D01*
X144277918Y-90068785D01*
X144300477Y-90060713D01*
X144323719Y-90054891D01*
X144347419Y-90051376D01*
X144371350Y-90050200D01*
X144934650Y-90050200D01*
X144958581Y-90051376D01*
G37*
G36*
X144958581Y-88476376D02*
G01*
X144982281Y-88479891D01*
X145005523Y-88485713D01*
X145028082Y-88493785D01*
X145049742Y-88504029D01*
X145070292Y-88516347D01*
X145089537Y-88530619D01*
X145107290Y-88546710D01*
X145123381Y-88564463D01*
X145137653Y-88583708D01*
X145149971Y-88604258D01*
X145160215Y-88625918D01*
X145168287Y-88648477D01*
X145174109Y-88671719D01*
X145177624Y-88695419D01*
X145178800Y-88719350D01*
X145178800Y-89207650D01*
X145177624Y-89231581D01*
X145174109Y-89255281D01*
X145168287Y-89278523D01*
X145160215Y-89301082D01*
X145149971Y-89322742D01*
X145137653Y-89343292D01*
X145123381Y-89362537D01*
X145107290Y-89380290D01*
X145089537Y-89396381D01*
X145070292Y-89410653D01*
X145049742Y-89422971D01*
X145028082Y-89433215D01*
X145005523Y-89441287D01*
X144982281Y-89447109D01*
X144958581Y-89450624D01*
X144934650Y-89451800D01*
X144371350Y-89451800D01*
X144347419Y-89450624D01*
X144323719Y-89447109D01*
X144300477Y-89441287D01*
X144277918Y-89433215D01*
X144256258Y-89422971D01*
X144235708Y-89410653D01*
X144216463Y-89396381D01*
X144198710Y-89380290D01*
X144182619Y-89362537D01*
X144168347Y-89343292D01*
X144156029Y-89322742D01*
X144145785Y-89301082D01*
X144137713Y-89278523D01*
X144131891Y-89255281D01*
X144128376Y-89231581D01*
X144127200Y-89207650D01*
X144127200Y-88719350D01*
X144128376Y-88695419D01*
X144131891Y-88671719D01*
X144137713Y-88648477D01*
X144145785Y-88625918D01*
X144156029Y-88604258D01*
X144168347Y-88583708D01*
X144182619Y-88564463D01*
X144198710Y-88546710D01*
X144216463Y-88530619D01*
X144235708Y-88516347D01*
X144256258Y-88504029D01*
X144277918Y-88493785D01*
X144300477Y-88485713D01*
X144323719Y-88479891D01*
X144347419Y-88476376D01*
X144371350Y-88475200D01*
X144934650Y-88475200D01*
X144958581Y-88476376D01*
G37*
G36*
X135941581Y-91587876D02*
G01*
X135965281Y-91591391D01*
X135988523Y-91597213D01*
X136011082Y-91605285D01*
X136032742Y-91615529D01*
X136053292Y-91627847D01*
X136072537Y-91642119D01*
X136090290Y-91658210D01*
X136106381Y-91675963D01*
X136120653Y-91695208D01*
X136132971Y-91715758D01*
X136143215Y-91737418D01*
X136151287Y-91759977D01*
X136157109Y-91783219D01*
X136160624Y-91806919D01*
X136161800Y-91830850D01*
X136161800Y-92319150D01*
X136160624Y-92343081D01*
X136157109Y-92366781D01*
X136151287Y-92390023D01*
X136143215Y-92412582D01*
X136132971Y-92434242D01*
X136120653Y-92454792D01*
X136106381Y-92474037D01*
X136090290Y-92491790D01*
X136072537Y-92507881D01*
X136053292Y-92522153D01*
X136032742Y-92534471D01*
X136011082Y-92544715D01*
X135988523Y-92552787D01*
X135965281Y-92558609D01*
X135941581Y-92562124D01*
X135917650Y-92563300D01*
X135354350Y-92563300D01*
X135330419Y-92562124D01*
X135306719Y-92558609D01*
X135283477Y-92552787D01*
X135260918Y-92544715D01*
X135239258Y-92534471D01*
X135218708Y-92522153D01*
X135199463Y-92507881D01*
X135181710Y-92491790D01*
X135165619Y-92474037D01*
X135151347Y-92454792D01*
X135139029Y-92434242D01*
X135128785Y-92412582D01*
X135120713Y-92390023D01*
X135114891Y-92366781D01*
X135111376Y-92343081D01*
X135110200Y-92319150D01*
X135110200Y-91830850D01*
X135111376Y-91806919D01*
X135114891Y-91783219D01*
X135120713Y-91759977D01*
X135128785Y-91737418D01*
X135139029Y-91715758D01*
X135151347Y-91695208D01*
X135165619Y-91675963D01*
X135181710Y-91658210D01*
X135199463Y-91642119D01*
X135218708Y-91627847D01*
X135239258Y-91615529D01*
X135260918Y-91605285D01*
X135283477Y-91597213D01*
X135306719Y-91591391D01*
X135330419Y-91587876D01*
X135354350Y-91586700D01*
X135917650Y-91586700D01*
X135941581Y-91587876D01*
G37*
G36*
X135941581Y-90012876D02*
G01*
X135965281Y-90016391D01*
X135988523Y-90022213D01*
X136011082Y-90030285D01*
X136032742Y-90040529D01*
X136053292Y-90052847D01*
X136072537Y-90067119D01*
X136090290Y-90083210D01*
X136106381Y-90100963D01*
X136120653Y-90120208D01*
X136132971Y-90140758D01*
X136143215Y-90162418D01*
X136151287Y-90184977D01*
X136157109Y-90208219D01*
X136160624Y-90231919D01*
X136161800Y-90255850D01*
X136161800Y-90744150D01*
X136160624Y-90768081D01*
X136157109Y-90791781D01*
X136151287Y-90815023D01*
X136143215Y-90837582D01*
X136132971Y-90859242D01*
X136120653Y-90879792D01*
X136106381Y-90899037D01*
X136090290Y-90916790D01*
X136072537Y-90932881D01*
X136053292Y-90947153D01*
X136032742Y-90959471D01*
X136011082Y-90969715D01*
X135988523Y-90977787D01*
X135965281Y-90983609D01*
X135941581Y-90987124D01*
X135917650Y-90988300D01*
X135354350Y-90988300D01*
X135330419Y-90987124D01*
X135306719Y-90983609D01*
X135283477Y-90977787D01*
X135260918Y-90969715D01*
X135239258Y-90959471D01*
X135218708Y-90947153D01*
X135199463Y-90932881D01*
X135181710Y-90916790D01*
X135165619Y-90899037D01*
X135151347Y-90879792D01*
X135139029Y-90859242D01*
X135128785Y-90837582D01*
X135120713Y-90815023D01*
X135114891Y-90791781D01*
X135111376Y-90768081D01*
X135110200Y-90744150D01*
X135110200Y-90255850D01*
X135111376Y-90231919D01*
X135114891Y-90208219D01*
X135120713Y-90184977D01*
X135128785Y-90162418D01*
X135139029Y-90140758D01*
X135151347Y-90120208D01*
X135165619Y-90100963D01*
X135181710Y-90083210D01*
X135199463Y-90067119D01*
X135218708Y-90052847D01*
X135239258Y-90040529D01*
X135260918Y-90030285D01*
X135283477Y-90022213D01*
X135306719Y-90016391D01*
X135330419Y-90012876D01*
X135354350Y-90011700D01*
X135917650Y-90011700D01*
X135941581Y-90012876D01*
G37*
G36*
X125400581Y-86114376D02*
G01*
X125424281Y-86117891D01*
X125447523Y-86123713D01*
X125470082Y-86131785D01*
X125491742Y-86142029D01*
X125512292Y-86154347D01*
X125531537Y-86168619D01*
X125549290Y-86184710D01*
X125565381Y-86202463D01*
X125579653Y-86221708D01*
X125591971Y-86242258D01*
X125602215Y-86263918D01*
X125610287Y-86286477D01*
X125616109Y-86309719D01*
X125619624Y-86333419D01*
X125620800Y-86357350D01*
X125620800Y-86845650D01*
X125619624Y-86869581D01*
X125616109Y-86893281D01*
X125610287Y-86916523D01*
X125602215Y-86939082D01*
X125591971Y-86960742D01*
X125579653Y-86981292D01*
X125565381Y-87000537D01*
X125549290Y-87018290D01*
X125531537Y-87034381D01*
X125512292Y-87048653D01*
X125491742Y-87060971D01*
X125470082Y-87071215D01*
X125447523Y-87079287D01*
X125424281Y-87085109D01*
X125400581Y-87088624D01*
X125376650Y-87089800D01*
X124813350Y-87089800D01*
X124789419Y-87088624D01*
X124765719Y-87085109D01*
X124742477Y-87079287D01*
X124719918Y-87071215D01*
X124698258Y-87060971D01*
X124677708Y-87048653D01*
X124658463Y-87034381D01*
X124640710Y-87018290D01*
X124624619Y-87000537D01*
X124610347Y-86981292D01*
X124598029Y-86960742D01*
X124587785Y-86939082D01*
X124579713Y-86916523D01*
X124573891Y-86893281D01*
X124570376Y-86869581D01*
X124569200Y-86845650D01*
X124569200Y-86357350D01*
X124570376Y-86333419D01*
X124573891Y-86309719D01*
X124579713Y-86286477D01*
X124587785Y-86263918D01*
X124598029Y-86242258D01*
X124610347Y-86221708D01*
X124624619Y-86202463D01*
X124640710Y-86184710D01*
X124658463Y-86168619D01*
X124677708Y-86154347D01*
X124698258Y-86142029D01*
X124719918Y-86131785D01*
X124742477Y-86123713D01*
X124765719Y-86117891D01*
X124789419Y-86114376D01*
X124813350Y-86113200D01*
X125376650Y-86113200D01*
X125400581Y-86114376D01*
G37*
G36*
X125400581Y-84539376D02*
G01*
X125424281Y-84542891D01*
X125447523Y-84548713D01*
X125470082Y-84556785D01*
X125491742Y-84567029D01*
X125512292Y-84579347D01*
X125531537Y-84593619D01*
X125549290Y-84609710D01*
X125565381Y-84627463D01*
X125579653Y-84646708D01*
X125591971Y-84667258D01*
X125602215Y-84688918D01*
X125610287Y-84711477D01*
X125616109Y-84734719D01*
X125619624Y-84758419D01*
X125620800Y-84782350D01*
X125620800Y-85270650D01*
X125619624Y-85294581D01*
X125616109Y-85318281D01*
X125610287Y-85341523D01*
X125602215Y-85364082D01*
X125591971Y-85385742D01*
X125579653Y-85406292D01*
X125565381Y-85425537D01*
X125549290Y-85443290D01*
X125531537Y-85459381D01*
X125512292Y-85473653D01*
X125491742Y-85485971D01*
X125470082Y-85496215D01*
X125447523Y-85504287D01*
X125424281Y-85510109D01*
X125400581Y-85513624D01*
X125376650Y-85514800D01*
X124813350Y-85514800D01*
X124789419Y-85513624D01*
X124765719Y-85510109D01*
X124742477Y-85504287D01*
X124719918Y-85496215D01*
X124698258Y-85485971D01*
X124677708Y-85473653D01*
X124658463Y-85459381D01*
X124640710Y-85443290D01*
X124624619Y-85425537D01*
X124610347Y-85406292D01*
X124598029Y-85385742D01*
X124587785Y-85364082D01*
X124579713Y-85341523D01*
X124573891Y-85318281D01*
X124570376Y-85294581D01*
X124569200Y-85270650D01*
X124569200Y-84782350D01*
X124570376Y-84758419D01*
X124573891Y-84734719D01*
X124579713Y-84711477D01*
X124587785Y-84688918D01*
X124598029Y-84667258D01*
X124610347Y-84646708D01*
X124624619Y-84627463D01*
X124640710Y-84609710D01*
X124658463Y-84593619D01*
X124677708Y-84579347D01*
X124698258Y-84567029D01*
X124719918Y-84556785D01*
X124742477Y-84548713D01*
X124765719Y-84542891D01*
X124789419Y-84539376D01*
X124813350Y-84538200D01*
X125376650Y-84538200D01*
X125400581Y-84539376D01*
G37*
G36*
X136894081Y-78494376D02*
G01*
X136917781Y-78497891D01*
X136941023Y-78503713D01*
X136963582Y-78511785D01*
X136985242Y-78522029D01*
X137005792Y-78534347D01*
X137025037Y-78548619D01*
X137042790Y-78564710D01*
X137058881Y-78582463D01*
X137073153Y-78601708D01*
X137085471Y-78622258D01*
X137095715Y-78643918D01*
X137103787Y-78666477D01*
X137109609Y-78689719D01*
X137113124Y-78713419D01*
X137114300Y-78737350D01*
X137114300Y-79225650D01*
X137113124Y-79249581D01*
X137109609Y-79273281D01*
X137103787Y-79296523D01*
X137095715Y-79319082D01*
X137085471Y-79340742D01*
X137073153Y-79361292D01*
X137058881Y-79380537D01*
X137042790Y-79398290D01*
X137025037Y-79414381D01*
X137005792Y-79428653D01*
X136985242Y-79440971D01*
X136963582Y-79451215D01*
X136941023Y-79459287D01*
X136917781Y-79465109D01*
X136894081Y-79468624D01*
X136870150Y-79469800D01*
X136306850Y-79469800D01*
X136282919Y-79468624D01*
X136259219Y-79465109D01*
X136235977Y-79459287D01*
X136213418Y-79451215D01*
X136191758Y-79440971D01*
X136171208Y-79428653D01*
X136151963Y-79414381D01*
X136134210Y-79398290D01*
X136118119Y-79380537D01*
X136103847Y-79361292D01*
X136091529Y-79340742D01*
X136081285Y-79319082D01*
X136073213Y-79296523D01*
X136067391Y-79273281D01*
X136063876Y-79249581D01*
X136062700Y-79225650D01*
X136062700Y-78737350D01*
X136063876Y-78713419D01*
X136067391Y-78689719D01*
X136073213Y-78666477D01*
X136081285Y-78643918D01*
X136091529Y-78622258D01*
X136103847Y-78601708D01*
X136118119Y-78582463D01*
X136134210Y-78564710D01*
X136151963Y-78548619D01*
X136171208Y-78534347D01*
X136191758Y-78522029D01*
X136213418Y-78511785D01*
X136235977Y-78503713D01*
X136259219Y-78497891D01*
X136282919Y-78494376D01*
X136306850Y-78493200D01*
X136870150Y-78493200D01*
X136894081Y-78494376D01*
G37*
G36*
X136894081Y-76919376D02*
G01*
X136917781Y-76922891D01*
X136941023Y-76928713D01*
X136963582Y-76936785D01*
X136985242Y-76947029D01*
X137005792Y-76959347D01*
X137025037Y-76973619D01*
X137042790Y-76989710D01*
X137058881Y-77007463D01*
X137073153Y-77026708D01*
X137085471Y-77047258D01*
X137095715Y-77068918D01*
X137103787Y-77091477D01*
X137109609Y-77114719D01*
X137113124Y-77138419D01*
X137114300Y-77162350D01*
X137114300Y-77650650D01*
X137113124Y-77674581D01*
X137109609Y-77698281D01*
X137103787Y-77721523D01*
X137095715Y-77744082D01*
X137085471Y-77765742D01*
X137073153Y-77786292D01*
X137058881Y-77805537D01*
X137042790Y-77823290D01*
X137025037Y-77839381D01*
X137005792Y-77853653D01*
X136985242Y-77865971D01*
X136963582Y-77876215D01*
X136941023Y-77884287D01*
X136917781Y-77890109D01*
X136894081Y-77893624D01*
X136870150Y-77894800D01*
X136306850Y-77894800D01*
X136282919Y-77893624D01*
X136259219Y-77890109D01*
X136235977Y-77884287D01*
X136213418Y-77876215D01*
X136191758Y-77865971D01*
X136171208Y-77853653D01*
X136151963Y-77839381D01*
X136134210Y-77823290D01*
X136118119Y-77805537D01*
X136103847Y-77786292D01*
X136091529Y-77765742D01*
X136081285Y-77744082D01*
X136073213Y-77721523D01*
X136067391Y-77698281D01*
X136063876Y-77674581D01*
X136062700Y-77650650D01*
X136062700Y-77162350D01*
X136063876Y-77138419D01*
X136067391Y-77114719D01*
X136073213Y-77091477D01*
X136081285Y-77068918D01*
X136091529Y-77047258D01*
X136103847Y-77026708D01*
X136118119Y-77007463D01*
X136134210Y-76989710D01*
X136151963Y-76973619D01*
X136171208Y-76959347D01*
X136191758Y-76947029D01*
X136213418Y-76936785D01*
X136235977Y-76928713D01*
X136259219Y-76922891D01*
X136282919Y-76919376D01*
X136306850Y-76918200D01*
X136870150Y-76918200D01*
X136894081Y-76919376D01*
G37*
G36*
X150927581Y-68270876D02*
G01*
X150951281Y-68274391D01*
X150974523Y-68280213D01*
X150997082Y-68288285D01*
X151018742Y-68298529D01*
X151039292Y-68310847D01*
X151058537Y-68325119D01*
X151076290Y-68341210D01*
X151092381Y-68358963D01*
X151106653Y-68378208D01*
X151118971Y-68398758D01*
X151129215Y-68420418D01*
X151137287Y-68442977D01*
X151143109Y-68466219D01*
X151146624Y-68489919D01*
X151147800Y-68513850D01*
X151147800Y-69002150D01*
X151146624Y-69026081D01*
X151143109Y-69049781D01*
X151137287Y-69073023D01*
X151129215Y-69095582D01*
X151118971Y-69117242D01*
X151106653Y-69137792D01*
X151092381Y-69157037D01*
X151076290Y-69174790D01*
X151058537Y-69190881D01*
X151039292Y-69205153D01*
X151018742Y-69217471D01*
X150997082Y-69227715D01*
X150974523Y-69235787D01*
X150951281Y-69241609D01*
X150927581Y-69245124D01*
X150903650Y-69246300D01*
X150340350Y-69246300D01*
X150316419Y-69245124D01*
X150292719Y-69241609D01*
X150269477Y-69235787D01*
X150246918Y-69227715D01*
X150225258Y-69217471D01*
X150204708Y-69205153D01*
X150185463Y-69190881D01*
X150167710Y-69174790D01*
X150151619Y-69157037D01*
X150137347Y-69137792D01*
X150125029Y-69117242D01*
X150114785Y-69095582D01*
X150106713Y-69073023D01*
X150100891Y-69049781D01*
X150097376Y-69026081D01*
X150096200Y-69002150D01*
X150096200Y-68513850D01*
X150097376Y-68489919D01*
X150100891Y-68466219D01*
X150106713Y-68442977D01*
X150114785Y-68420418D01*
X150125029Y-68398758D01*
X150137347Y-68378208D01*
X150151619Y-68358963D01*
X150167710Y-68341210D01*
X150185463Y-68325119D01*
X150204708Y-68310847D01*
X150225258Y-68298529D01*
X150246918Y-68288285D01*
X150269477Y-68280213D01*
X150292719Y-68274391D01*
X150316419Y-68270876D01*
X150340350Y-68269700D01*
X150903650Y-68269700D01*
X150927581Y-68270876D01*
G37*
G36*
X150927581Y-66695876D02*
G01*
X150951281Y-66699391D01*
X150974523Y-66705213D01*
X150997082Y-66713285D01*
X151018742Y-66723529D01*
X151039292Y-66735847D01*
X151058537Y-66750119D01*
X151076290Y-66766210D01*
X151092381Y-66783963D01*
X151106653Y-66803208D01*
X151118971Y-66823758D01*
X151129215Y-66845418D01*
X151137287Y-66867977D01*
X151143109Y-66891219D01*
X151146624Y-66914919D01*
X151147800Y-66938850D01*
X151147800Y-67427150D01*
X151146624Y-67451081D01*
X151143109Y-67474781D01*
X151137287Y-67498023D01*
X151129215Y-67520582D01*
X151118971Y-67542242D01*
X151106653Y-67562792D01*
X151092381Y-67582037D01*
X151076290Y-67599790D01*
X151058537Y-67615881D01*
X151039292Y-67630153D01*
X151018742Y-67642471D01*
X150997082Y-67652715D01*
X150974523Y-67660787D01*
X150951281Y-67666609D01*
X150927581Y-67670124D01*
X150903650Y-67671300D01*
X150340350Y-67671300D01*
X150316419Y-67670124D01*
X150292719Y-67666609D01*
X150269477Y-67660787D01*
X150246918Y-67652715D01*
X150225258Y-67642471D01*
X150204708Y-67630153D01*
X150185463Y-67615881D01*
X150167710Y-67599790D01*
X150151619Y-67582037D01*
X150137347Y-67562792D01*
X150125029Y-67542242D01*
X150114785Y-67520582D01*
X150106713Y-67498023D01*
X150100891Y-67474781D01*
X150097376Y-67451081D01*
X150096200Y-67427150D01*
X150096200Y-66938850D01*
X150097376Y-66914919D01*
X150100891Y-66891219D01*
X150106713Y-66867977D01*
X150114785Y-66845418D01*
X150125029Y-66823758D01*
X150137347Y-66803208D01*
X150151619Y-66783963D01*
X150167710Y-66766210D01*
X150185463Y-66750119D01*
X150204708Y-66735847D01*
X150225258Y-66723529D01*
X150246918Y-66713285D01*
X150269477Y-66705213D01*
X150292719Y-66699391D01*
X150316419Y-66695876D01*
X150340350Y-66694700D01*
X150903650Y-66694700D01*
X150927581Y-66695876D01*
G37*
G36*
X171597181Y-102817240D02*
G01*
X171597385Y-102817243D01*
X171598333Y-102817266D01*
X171700000Y-102820661D01*
X171700765Y-102820693D01*
X171700930Y-102820701D01*
X171701843Y-102820753D01*
X171792255Y-102826770D01*
X171793130Y-102826836D01*
X171793273Y-102826848D01*
X171793853Y-102826900D01*
X171889156Y-102835999D01*
X171889778Y-102836062D01*
X171889917Y-102836077D01*
X171890705Y-102836168D01*
X171993789Y-102848923D01*
X171994397Y-102849002D01*
X171994522Y-102849019D01*
X171995180Y-102849113D01*
X172108934Y-102866102D01*
X172109549Y-102866198D01*
X172109654Y-102866215D01*
X172110108Y-102866291D01*
X172237422Y-102888090D01*
X172237677Y-102888134D01*
X172237762Y-102888149D01*
X172238373Y-102888261D01*
X172382137Y-102915446D01*
X172382374Y-102915491D01*
X172382441Y-102915504D01*
X172382882Y-102915592D01*
X172545985Y-102948739D01*
X172546556Y-102948858D01*
X172731889Y-102988543D01*
X172731889Y-102988544D01*
X172732318Y-102988636D01*
X172942768Y-103035436D01*
X172943086Y-103035510D01*
X172943086Y-103035509D01*
X173181545Y-103090000D01*
X173181544Y-103090003D01*
X173181776Y-103090052D01*
X173451134Y-103152811D01*
X173451298Y-103152854D01*
X173451299Y-103152850D01*
X173754443Y-103224452D01*
X173754567Y-103224482D01*
X173889424Y-103256559D01*
X174075908Y-103300318D01*
X174230605Y-103334388D01*
X174360304Y-103359273D01*
X174471725Y-103375507D01*
X174571794Y-103383717D01*
X174667968Y-103384514D01*
X174767843Y-103378322D01*
X174878651Y-103365425D01*
X175007518Y-103346093D01*
X175069327Y-103336031D01*
X175069327Y-103336033D01*
X175069639Y-103335981D01*
X175322992Y-103296209D01*
X175323864Y-103296079D01*
X175323943Y-103296068D01*
X175565462Y-103262123D01*
X175565818Y-103262075D01*
X175565908Y-103262063D01*
X175566463Y-103261992D01*
X175788059Y-103234924D01*
X175788462Y-103234876D01*
X175788576Y-103234863D01*
X175789336Y-103234782D01*
X175982733Y-103215668D01*
X175983280Y-103215617D01*
X175983371Y-103215609D01*
X175983746Y-103215578D01*
X176016548Y-103212939D01*
X176016739Y-103212926D01*
X176016739Y-103212924D01*
X176187700Y-103199760D01*
X176192688Y-103199622D01*
X176193668Y-103199643D01*
X176203518Y-103200822D01*
X176204475Y-103201033D01*
X176214010Y-103204150D01*
X176214907Y-103204545D01*
X176223503Y-103209376D01*
X176224307Y-103209937D01*
X176231928Y-103216463D01*
X176232606Y-103217171D01*
X176238757Y-103225006D01*
X176239284Y-103225833D01*
X176243772Y-103234678D01*
X176244128Y-103235591D01*
X176247128Y-103247144D01*
X176247313Y-103248493D01*
X176247784Y-103255395D01*
X176247784Y-103306404D01*
X176247757Y-103308061D01*
X176247746Y-103308398D01*
X176247658Y-103310163D01*
X176243548Y-103371038D01*
X176243401Y-103372766D01*
X176243369Y-103373080D01*
X176243199Y-103374540D01*
X176230805Y-103468980D01*
X176230726Y-103469554D01*
X176230705Y-103469701D01*
X176230565Y-103470625D01*
X176209789Y-103599127D01*
X176209667Y-103599847D01*
X176209652Y-103599932D01*
X176209627Y-103600075D01*
X176180373Y-103763135D01*
X176180352Y-103763251D01*
X176180342Y-103763306D01*
X176180260Y-103763747D01*
X176142431Y-103961863D01*
X176142429Y-103961863D01*
X176142348Y-103962288D01*
X176095848Y-104195956D01*
X176095784Y-104196267D01*
X176095785Y-104196267D01*
X176040515Y-104465985D01*
X176040513Y-104465985D01*
X176040466Y-104466220D01*
X175976331Y-104772483D01*
X175976289Y-104772665D01*
X175976292Y-104772666D01*
X175903195Y-105115972D01*
X175903192Y-105115971D01*
X175903166Y-105116113D01*
X175828841Y-105460838D01*
X175828839Y-105460845D01*
X175746692Y-105846209D01*
X175661442Y-106258028D01*
X175573588Y-106693358D01*
X175483897Y-107147959D01*
X175392901Y-107618759D01*
X175301247Y-108102090D01*
X175301246Y-108102090D01*
X175209640Y-108594005D01*
X175118686Y-109091071D01*
X175029021Y-109589674D01*
X174941283Y-110086204D01*
X174941281Y-110086212D01*
X174856137Y-110576889D01*
X174774141Y-111058599D01*
X174696044Y-111527056D01*
X174622399Y-111979158D01*
X174553835Y-112411354D01*
X174491062Y-112819592D01*
X174434711Y-113200264D01*
X174385379Y-113550051D01*
X174343673Y-113865541D01*
X174343331Y-113868239D01*
X174343330Y-113868239D01*
X174343294Y-113868534D01*
X174319973Y-114044913D01*
X174319972Y-114044921D01*
X174319880Y-114045586D01*
X174294726Y-114219518D01*
X174294611Y-114220265D01*
X174294612Y-114220265D01*
X174266930Y-114394957D01*
X174266923Y-114395004D01*
X174266912Y-114395073D01*
X174266802Y-114395733D01*
X174235902Y-114574392D01*
X174235882Y-114574507D01*
X174235764Y-114575157D01*
X174200953Y-114760987D01*
X174200813Y-114761702D01*
X174200814Y-114761702D01*
X174161399Y-114957910D01*
X174161304Y-114958370D01*
X174161292Y-114958427D01*
X174161266Y-114958551D01*
X174116555Y-115168344D01*
X174116485Y-115168670D01*
X174116474Y-115168720D01*
X174116434Y-115168898D01*
X174065734Y-115395480D01*
X174065629Y-115395942D01*
X174008249Y-115642521D01*
X174008221Y-115642642D01*
X174008213Y-115642676D01*
X174008160Y-115642897D01*
X173943407Y-115912678D01*
X173943332Y-115912977D01*
X173943334Y-115912977D01*
X173870515Y-116209167D01*
X173870467Y-116209360D01*
X173870462Y-116209380D01*
X173870458Y-116209398D01*
X173788882Y-116535202D01*
X173788838Y-116535377D01*
X173697811Y-116894001D01*
X173697809Y-116894001D01*
X173697785Y-116894102D01*
X173648110Y-117088291D01*
X173648109Y-117088294D01*
X173556198Y-117447475D01*
X173473647Y-117771656D01*
X173399776Y-118063707D01*
X173333917Y-118326458D01*
X173275449Y-118562532D01*
X173275448Y-118562537D01*
X173223612Y-118775136D01*
X173177793Y-118966860D01*
X173177793Y-118966861D01*
X173137258Y-119140823D01*
X173101423Y-119299473D01*
X173069602Y-119445705D01*
X173041093Y-119582498D01*
X173015213Y-119712743D01*
X172991325Y-119839119D01*
X172970559Y-119954217D01*
X172949160Y-120084826D01*
X172934708Y-120199673D01*
X172925870Y-120313730D01*
X172921439Y-120442016D01*
X172920342Y-120561479D01*
X172928219Y-120818041D01*
X172953588Y-121070890D01*
X172997677Y-121324681D01*
X173061746Y-121583382D01*
X173147112Y-121850947D01*
X173255095Y-122131234D01*
X173386973Y-122427966D01*
X173544039Y-122744927D01*
X173727685Y-123086097D01*
X173747118Y-123120898D01*
X173747172Y-123120995D01*
X173747182Y-123121013D01*
X173747228Y-123121096D01*
X173805002Y-123225545D01*
X173805001Y-123225546D01*
X173805307Y-123226103D01*
X173855415Y-123319180D01*
X173855699Y-123319714D01*
X173855733Y-123319779D01*
X173855798Y-123319903D01*
X173895433Y-123396187D01*
X173895791Y-123396891D01*
X173895848Y-123397005D01*
X173896075Y-123397464D01*
X173922432Y-123451536D01*
X173923275Y-123453356D01*
X173923442Y-123453736D01*
X173924286Y-123455776D01*
X173934559Y-123482215D01*
X173936144Y-123486980D01*
X173936407Y-123487924D01*
X173938146Y-123498001D01*
X173938219Y-123499041D01*
X173938314Y-123504354D01*
X173938268Y-123505684D01*
X173937849Y-123510669D01*
X173937719Y-123511640D01*
X173935441Y-123521320D01*
X173935124Y-123522248D01*
X173931013Y-123531282D01*
X173930522Y-123532130D01*
X173924688Y-123540244D01*
X173924040Y-123540980D01*
X173916747Y-123547782D01*
X173915968Y-123548377D01*
X173907540Y-123553597D01*
X173906661Y-123554029D01*
X173897305Y-123557533D01*
X173896357Y-123557785D01*
X173884441Y-123559477D01*
X173883054Y-123559508D01*
X173876005Y-123559176D01*
X173857603Y-123557019D01*
X173851262Y-123555864D01*
X173850035Y-123555559D01*
X173843915Y-123553619D01*
X173797895Y-123535764D01*
X173796549Y-123535220D01*
X173796276Y-123535105D01*
X173794846Y-123534476D01*
X173727945Y-123503839D01*
X173727220Y-123503501D01*
X173727067Y-123503428D01*
X173726232Y-123503020D01*
X173645192Y-123462517D01*
X173644930Y-123462385D01*
X173644859Y-123462349D01*
X173644407Y-123462117D01*
X173636023Y-123457760D01*
X173635459Y-123457462D01*
X173635375Y-123457417D01*
X173635077Y-123457256D01*
X173482779Y-123374354D01*
X173481913Y-123373872D01*
X173481727Y-123373766D01*
X173480712Y-123373172D01*
X173338053Y-123287437D01*
X173336895Y-123286719D01*
X173336685Y-123286585D01*
X173335705Y-123285944D01*
X173198673Y-123193991D01*
X173197562Y-123193224D01*
X173197348Y-123193072D01*
X173196285Y-123192296D01*
X173060873Y-123090738D01*
X173059842Y-123089944D01*
X173059646Y-123089789D01*
X173058684Y-123089009D01*
X172920882Y-122974464D01*
X172920085Y-122973787D01*
X172919920Y-122973644D01*
X172919043Y-122972866D01*
X172774842Y-122841947D01*
X172774235Y-122841388D01*
X172774106Y-122841267D01*
X172773405Y-122840596D01*
X172618795Y-122689918D01*
X172618329Y-122689458D01*
X172618234Y-122689363D01*
X172617735Y-122688857D01*
X172448708Y-122515036D01*
X172448166Y-122514470D01*
X172448100Y-122514400D01*
X172447967Y-122514258D01*
X172260616Y-122314018D01*
X172260584Y-122313984D01*
X172260159Y-122313526D01*
X172193764Y-122241221D01*
X172062921Y-122099049D01*
X171952233Y-121981176D01*
X171856188Y-121882344D01*
X171769093Y-121797090D01*
X171685192Y-121719894D01*
X171598527Y-121645085D01*
X171503216Y-121567116D01*
X171404010Y-121488767D01*
X171163893Y-121317010D01*
X170919415Y-121172118D01*
X170676135Y-121056753D01*
X170439135Y-120973584D01*
X170409630Y-120965462D01*
X170363153Y-120953569D01*
X170361791Y-120953200D01*
X170361539Y-120953128D01*
X170360337Y-120952769D01*
X170324580Y-120941590D01*
X170319206Y-120939570D01*
X170318174Y-120939114D01*
X170313058Y-120936498D01*
X170286681Y-120921070D01*
X170282533Y-120918364D01*
X170281739Y-120917789D01*
X170274285Y-120911186D01*
X170273622Y-120910471D01*
X170270428Y-120906669D01*
X170251608Y-120881907D01*
X170248791Y-120877798D01*
X170248277Y-120876963D01*
X170244512Y-120869546D01*
X170244264Y-120868939D01*
X170243106Y-120865817D01*
X170230021Y-120826634D01*
X170228837Y-120822520D01*
X170228640Y-120821708D01*
X170227818Y-120817577D01*
X170218643Y-120758887D01*
X170218399Y-120757128D01*
X170218357Y-120756780D01*
X170218174Y-120755001D01*
X170211086Y-120671717D01*
X170211041Y-120671146D01*
X170211032Y-120671024D01*
X170210986Y-120670351D01*
X170204161Y-120557386D01*
X170204132Y-120556859D01*
X170204131Y-120556839D01*
X170197436Y-120438222D01*
X170197437Y-120438222D01*
X170197418Y-120437898D01*
X170178551Y-120065103D01*
X170178523Y-120064446D01*
X170178522Y-120064446D01*
X170162712Y-119657134D01*
X170162693Y-119656591D01*
X170149981Y-119219204D01*
X170149974Y-119218937D01*
X170149973Y-119218895D01*
X170149970Y-119218736D01*
X170140395Y-118755717D01*
X170140396Y-118755717D01*
X170140387Y-118755301D01*
X170133987Y-118271093D01*
X170133985Y-118270711D01*
X170133984Y-118270711D01*
X170130798Y-117769756D01*
X170130797Y-117769433D01*
X170130797Y-117769393D01*
X170130864Y-117256134D01*
X170130864Y-117256110D01*
X170130865Y-117255782D01*
X170134225Y-116734661D01*
X170134226Y-116734661D01*
X170134228Y-116734309D01*
X170140919Y-116209770D01*
X170140927Y-116209410D01*
X170140925Y-116209410D01*
X170150986Y-115685895D01*
X170150988Y-115685895D01*
X170150991Y-115685656D01*
X170154429Y-115539381D01*
X170154435Y-115539298D01*
X170154432Y-115539298D01*
X170161149Y-115270445D01*
X170161150Y-115270391D01*
X170168216Y-114998119D01*
X170168217Y-114998070D01*
X170175532Y-114725523D01*
X170175533Y-114725476D01*
X170183002Y-114455803D01*
X170183003Y-114455803D01*
X170183004Y-114455755D01*
X170190527Y-114192099D01*
X170190528Y-114192052D01*
X170198008Y-113937559D01*
X170198009Y-113937508D01*
X170205349Y-113695326D01*
X170205350Y-113695326D01*
X170205351Y-113695269D01*
X170212453Y-113468541D01*
X170212461Y-113468475D01*
X170212456Y-113468475D01*
X170219222Y-113260349D01*
X170219223Y-113260349D01*
X170219224Y-113260267D01*
X170225556Y-113073888D01*
X170225558Y-113073888D01*
X170225560Y-113073780D01*
X170231361Y-112912294D01*
X170231369Y-112912136D01*
X170231367Y-112912136D01*
X170236539Y-112778687D01*
X170236549Y-112778447D01*
X170236550Y-112778424D01*
X170240995Y-112676161D01*
X170241021Y-112675615D01*
X170244642Y-112607681D01*
X170244663Y-112607312D01*
X170244669Y-112607213D01*
X170244712Y-112606576D01*
X170246196Y-112586310D01*
X170246245Y-112585710D01*
X170246244Y-112585710D01*
X170254791Y-112484038D01*
X170254791Y-112484031D01*
X170265551Y-112347211D01*
X170265552Y-112347211D01*
X170278196Y-112179974D01*
X170292480Y-111985951D01*
X170292482Y-111985938D01*
X170308095Y-111769627D01*
X170324759Y-111535133D01*
X170324758Y-111535121D01*
X170342196Y-111286446D01*
X170342197Y-111286446D01*
X170360116Y-111027915D01*
X170378230Y-110763690D01*
X170378229Y-110763678D01*
X170396264Y-110497772D01*
X170396265Y-110497772D01*
X170413927Y-110234477D01*
X170430934Y-109977912D01*
X170447000Y-109732298D01*
X170447000Y-109732294D01*
X170461850Y-109501609D01*
X170475185Y-109290279D01*
X170475184Y-109290279D01*
X170486735Y-109102156D01*
X170486737Y-109102145D01*
X170496205Y-108941668D01*
X170499954Y-108875201D01*
X170509497Y-108684126D01*
X170518159Y-108474603D01*
X170525855Y-108251984D01*
X170532476Y-108021986D01*
X170537937Y-107789908D01*
X170542125Y-107561948D01*
X170542124Y-107561940D01*
X170544958Y-107342755D01*
X170546333Y-107138596D01*
X170546155Y-106955004D01*
X170544332Y-106797341D01*
X170540780Y-106671486D01*
X170539057Y-106634939D01*
X170536697Y-106594917D01*
X170505015Y-106686746D01*
X170467259Y-106800373D01*
X170463850Y-106810840D01*
X170409860Y-106979564D01*
X170357227Y-107149873D01*
X170305266Y-107324512D01*
X170253424Y-107505786D01*
X170201079Y-107696222D01*
X170147482Y-107898823D01*
X170092153Y-108115598D01*
X170034397Y-108349369D01*
X169973565Y-108602785D01*
X169909180Y-108877782D01*
X169909179Y-108877790D01*
X169840440Y-109177666D01*
X169766773Y-109504752D01*
X169687629Y-109861268D01*
X169687628Y-109861268D01*
X169602343Y-110249935D01*
X169510295Y-110673284D01*
X169467096Y-110873026D01*
X169467095Y-110873026D01*
X169467094Y-110873039D01*
X169429485Y-111046736D01*
X169429484Y-111046736D01*
X169429473Y-111046791D01*
X169392435Y-111217022D01*
X169392423Y-111217078D01*
X169357234Y-111378022D01*
X169357217Y-111378084D01*
X169357219Y-111378084D01*
X169325160Y-111523920D01*
X169325158Y-111523919D01*
X169325143Y-111524000D01*
X169297492Y-111648908D01*
X169297462Y-111649030D01*
X169297464Y-111649031D01*
X169275502Y-111747190D01*
X169275465Y-111747356D01*
X169275460Y-111747378D01*
X169275447Y-111747436D01*
X169260807Y-111811507D01*
X169237460Y-111915434D01*
X169207731Y-112054240D01*
X169172111Y-112225349D01*
X169131417Y-112424640D01*
X169086276Y-112648885D01*
X169037282Y-112895028D01*
X169037281Y-112895028D01*
X168985172Y-113159297D01*
X168985173Y-113159297D01*
X168930536Y-113438672D01*
X168930535Y-113438672D01*
X168874089Y-113729471D01*
X168874088Y-113729483D01*
X168816426Y-114028668D01*
X168758258Y-114332582D01*
X168758259Y-114332582D01*
X168700191Y-114638136D01*
X168642915Y-114941770D01*
X168587071Y-115240209D01*
X168533331Y-115529988D01*
X168491121Y-115759739D01*
X168436527Y-116061638D01*
X168384776Y-116354442D01*
X168336532Y-116634092D01*
X168292377Y-116896998D01*
X168252773Y-117140289D01*
X168218407Y-117359744D01*
X168189814Y-117552031D01*
X168167574Y-117713542D01*
X168152244Y-117840794D01*
X168150112Y-117861294D01*
X168123540Y-118157390D01*
X168099479Y-118491348D01*
X168077945Y-118862571D01*
X168059002Y-119269789D01*
X168042691Y-119711974D01*
X168029051Y-120188287D01*
X168018130Y-120697491D01*
X168009969Y-121238641D01*
X168009970Y-121238654D01*
X168008799Y-121339212D01*
X167996233Y-122467361D01*
X167995932Y-122472342D01*
X167995825Y-122473316D01*
X167993775Y-122483054D01*
X167993480Y-122483989D01*
X167989556Y-122493168D01*
X167989084Y-122494027D01*
X167983481Y-122502212D01*
X167982851Y-122502963D01*
X167975698Y-122509957D01*
X167974933Y-122510570D01*
X167966609Y-122515995D01*
X167965740Y-122516447D01*
X167956500Y-122520153D01*
X167955559Y-122520427D01*
X167945811Y-122522257D01*
X167944834Y-122522343D01*
X167934833Y-122522235D01*
X167933859Y-122522128D01*
X167924121Y-122520078D01*
X167923186Y-122519783D01*
X167914007Y-122515859D01*
X167913148Y-122515387D01*
X167904963Y-122509784D01*
X167904212Y-122509154D01*
X167897218Y-122502001D01*
X167896605Y-122501236D01*
X167891179Y-122492910D01*
X167890726Y-122492039D01*
X167888641Y-122487497D01*
X167757693Y-122160762D01*
X167635087Y-121865756D01*
X167516714Y-121604477D01*
X167399480Y-121371226D01*
X167280311Y-121160372D01*
X167156153Y-120966368D01*
X167023744Y-120783413D01*
X166902344Y-120632479D01*
X166750474Y-120469820D01*
X166593035Y-120334498D01*
X166433282Y-120227745D01*
X166275160Y-120151240D01*
X166122744Y-120106370D01*
X165978134Y-120093823D01*
X165911490Y-120099980D01*
X165822043Y-120121646D01*
X165737630Y-120159444D01*
X165645443Y-120220447D01*
X165569972Y-120281340D01*
X165513826Y-120327937D01*
X165513078Y-120328545D01*
X165512954Y-120328644D01*
X165512445Y-120329046D01*
X165467551Y-120363959D01*
X165466058Y-120365076D01*
X165465754Y-120365295D01*
X165464153Y-120366403D01*
X165438817Y-120383219D01*
X165434515Y-120385778D01*
X165433649Y-120386237D01*
X165426809Y-120389241D01*
X165426340Y-120389407D01*
X165423922Y-120390195D01*
X165421718Y-120390853D01*
X165416879Y-120392043D01*
X165415917Y-120392230D01*
X165406017Y-120393163D01*
X165405037Y-120393159D01*
X165395082Y-120392132D01*
X165394122Y-120391936D01*
X165384643Y-120389012D01*
X165383739Y-120388633D01*
X165374986Y-120383908D01*
X165374173Y-120383360D01*
X165366491Y-120377001D01*
X165365801Y-120376305D01*
X165359521Y-120368587D01*
X165358980Y-120367770D01*
X165354210Y-120358691D01*
X165353822Y-120357727D01*
X165352103Y-120352716D01*
X165346853Y-120334342D01*
X165345880Y-120330323D01*
X165345723Y-120329536D01*
X165345092Y-120325561D01*
X165339123Y-120275058D01*
X165339032Y-120274230D01*
X165339013Y-120274043D01*
X165338916Y-120272970D01*
X165332842Y-120197258D01*
X165332792Y-120196575D01*
X165332785Y-120196470D01*
X165332761Y-120196092D01*
X165327198Y-120102098D01*
X165327175Y-120101677D01*
X165327172Y-120101618D01*
X165327163Y-120101440D01*
X165325277Y-120061600D01*
X165325280Y-120061600D01*
X165325272Y-120061515D01*
X165321124Y-119970931D01*
X165321124Y-119970924D01*
X165315105Y-119844433D01*
X165315106Y-119844433D01*
X165307362Y-119684882D01*
X165298046Y-119495316D01*
X165287314Y-119278754D01*
X165275320Y-119038211D01*
X165262217Y-118776706D01*
X165262216Y-118776706D01*
X165248155Y-118497221D01*
X165248156Y-118497221D01*
X165233292Y-118202796D01*
X165217780Y-117896434D01*
X165201772Y-117581140D01*
X165201773Y-117581140D01*
X165185423Y-117259926D01*
X165168884Y-116935803D01*
X165168884Y-116935796D01*
X165152310Y-116611780D01*
X165152311Y-116611780D01*
X165135855Y-116290865D01*
X165119670Y-115976072D01*
X165103910Y-115670406D01*
X165103911Y-115670406D01*
X165088730Y-115376878D01*
X165074280Y-115098499D01*
X165060717Y-114838280D01*
X165048192Y-114599231D01*
X165036859Y-114384360D01*
X165026872Y-114196682D01*
X165018387Y-114039245D01*
X165018386Y-114039245D01*
X165016256Y-114000193D01*
X165016253Y-114000100D01*
X165016252Y-114000100D01*
X164998027Y-113655402D01*
X164998014Y-113655122D01*
X164998013Y-113655122D01*
X164983142Y-113344199D01*
X164983143Y-113344199D01*
X164983124Y-113343791D01*
X164971689Y-113061493D01*
X164971688Y-113061493D01*
X164971686Y-113061444D01*
X164971668Y-113060926D01*
X164963745Y-112802056D01*
X164963727Y-112801308D01*
X164963726Y-112801245D01*
X164959400Y-112560763D01*
X164959396Y-112560517D01*
X164959395Y-112560441D01*
X164959391Y-112559919D01*
X164958738Y-112332443D01*
X164958738Y-112332212D01*
X164958743Y-112331494D01*
X164961844Y-112111967D01*
X164961868Y-112110974D01*
X164961871Y-112110885D01*
X164968805Y-111894228D01*
X164968809Y-111894102D01*
X164968812Y-111894015D01*
X164968844Y-111893253D01*
X164979695Y-111674129D01*
X164979732Y-111673473D01*
X164979737Y-111673393D01*
X164979747Y-111673242D01*
X164994593Y-111446572D01*
X164994625Y-111446111D01*
X164994630Y-111446044D01*
X164994647Y-111445822D01*
X165013569Y-111206441D01*
X165013618Y-111205852D01*
X165036696Y-110948595D01*
X165036738Y-110948169D01*
X165036736Y-110948169D01*
X165064049Y-110667871D01*
X165064052Y-110667871D01*
X165064067Y-110667691D01*
X165068752Y-110621177D01*
X165068761Y-110621110D01*
X165068759Y-110621110D01*
X165094714Y-110366525D01*
X165094715Y-110366525D01*
X165094729Y-110366371D01*
X165118768Y-110136858D01*
X165118799Y-110136598D01*
X165118797Y-110136598D01*
X165141648Y-109927883D01*
X165141675Y-109927644D01*
X165141679Y-109927609D01*
X165141691Y-109927499D01*
X165164081Y-109735308D01*
X165164082Y-109735308D01*
X165164143Y-109734794D01*
X165186799Y-109554853D01*
X165186884Y-109554222D01*
X165186883Y-109554222D01*
X165210532Y-109382255D01*
X165210553Y-109382102D01*
X165210562Y-109382038D01*
X165210635Y-109381539D01*
X165236004Y-109213271D01*
X165236088Y-109212732D01*
X165236099Y-109212664D01*
X165236123Y-109212518D01*
X165263940Y-109043676D01*
X165263976Y-109043458D01*
X165263987Y-109043393D01*
X165264065Y-109042946D01*
X165295057Y-108869255D01*
X165295128Y-108868867D01*
X165295139Y-108868808D01*
X165295179Y-108868595D01*
X165330072Y-108685780D01*
X165330074Y-108685780D01*
X165330180Y-108685223D01*
X165369703Y-108489009D01*
X165369797Y-108488568D01*
X165369795Y-108488568D01*
X165414674Y-108274682D01*
X165414743Y-108274355D01*
X165465706Y-108038520D01*
X165465707Y-108038520D01*
X165465755Y-108038293D01*
X165523528Y-107776237D01*
X165523561Y-107776093D01*
X165523560Y-107776093D01*
X165588871Y-107483540D01*
X165588890Y-107483466D01*
X165588888Y-107483466D01*
X165644848Y-107234384D01*
X165716354Y-106916104D01*
X165716355Y-106916097D01*
X165779627Y-106632785D01*
X165835127Y-106381601D01*
X165883353Y-106159548D01*
X165924845Y-105963440D01*
X165960065Y-105790464D01*
X165989545Y-105637479D01*
X166013783Y-105501534D01*
X166033305Y-105379522D01*
X166048633Y-105268393D01*
X166060273Y-105165185D01*
X166068768Y-105066614D01*
X166074628Y-104969519D01*
X166078349Y-104870881D01*
X166080434Y-104767348D01*
X166081370Y-104656152D01*
X166081508Y-104618488D01*
X166081446Y-104464083D01*
X166079933Y-104331656D01*
X166076443Y-104212402D01*
X166070439Y-104096775D01*
X166061363Y-103975346D01*
X166048660Y-103838973D01*
X166031754Y-103678255D01*
X166018963Y-103562775D01*
X166018961Y-103562744D01*
X166018960Y-103562744D01*
X166002961Y-103417562D01*
X166002938Y-103417344D01*
X166002937Y-103417344D01*
X165988897Y-103285165D01*
X165988872Y-103284908D01*
X165988871Y-103284908D01*
X165977263Y-103170597D01*
X165977266Y-103170597D01*
X165977227Y-103170237D01*
X165968528Y-103078657D01*
X165968481Y-103078143D01*
X165968476Y-103078084D01*
X165968469Y-103078000D01*
X165963153Y-103014017D01*
X165963088Y-103013135D01*
X165963076Y-103012952D01*
X165963021Y-103011975D01*
X165961563Y-102980453D01*
X165961598Y-102975100D01*
X165961660Y-102974054D01*
X165962251Y-102968776D01*
X165962650Y-102966362D01*
X165963704Y-102961486D01*
X165963958Y-102960539D01*
X165967453Y-102951251D01*
X165967886Y-102950372D01*
X165973155Y-102941894D01*
X165973752Y-102941116D01*
X165980569Y-102933840D01*
X165981306Y-102933194D01*
X165989398Y-102927398D01*
X165990247Y-102926908D01*
X165999312Y-102922802D01*
X166000240Y-102922487D01*
X166009986Y-102920219D01*
X166010958Y-102920092D01*
X166019873Y-102919718D01*
X166020656Y-102919754D01*
X166024624Y-102920092D01*
X166044881Y-102922624D01*
X166047080Y-102922948D01*
X166047516Y-102923022D01*
X166049749Y-102923453D01*
X166102183Y-102934787D01*
X166102730Y-102934908D01*
X166102831Y-102934931D01*
X166103305Y-102935042D01*
X166182232Y-102953814D01*
X166182232Y-102953813D01*
X166182283Y-102953825D01*
X166182923Y-102953980D01*
X166283021Y-102978906D01*
X166283021Y-102978907D01*
X166283432Y-102979010D01*
X166399018Y-103008726D01*
X166399192Y-103008771D01*
X166399215Y-103008777D01*
X166399272Y-103008792D01*
X166447951Y-103021551D01*
X166828180Y-103117263D01*
X167175382Y-103195202D01*
X167492073Y-103255823D01*
X167780468Y-103299511D01*
X168042678Y-103326666D01*
X168281280Y-103337747D01*
X168433851Y-103336219D01*
X168502896Y-103333565D01*
X168565708Y-103330372D01*
X168625663Y-103326014D01*
X168686961Y-103319820D01*
X168753574Y-103311120D01*
X168829838Y-103299169D01*
X168919290Y-103283337D01*
X169026212Y-103262868D01*
X169154323Y-103237115D01*
X169307242Y-103205456D01*
X169488916Y-103167210D01*
X169703179Y-103121720D01*
X169812914Y-103098356D01*
X169813023Y-103098334D01*
X169813023Y-103098333D01*
X170103924Y-103037004D01*
X170103924Y-103037005D01*
X170104230Y-103036940D01*
X170360634Y-102984382D01*
X170360872Y-102984334D01*
X170361077Y-102984293D01*
X170586444Y-102939995D01*
X170586444Y-102939996D01*
X170587066Y-102939876D01*
X170784858Y-102903327D01*
X170785632Y-102903190D01*
X170785709Y-102903177D01*
X170785712Y-102903176D01*
X170959389Y-102873866D01*
X170959971Y-102873772D01*
X170960073Y-102873756D01*
X170960528Y-102873686D01*
X171113551Y-102851103D01*
X171114104Y-102851025D01*
X171114236Y-102851007D01*
X171115023Y-102850906D01*
X171250853Y-102834540D01*
X171251660Y-102834449D01*
X171251823Y-102834432D01*
X171252675Y-102834351D01*
X171374773Y-102823691D01*
X171375741Y-102823615D01*
X171375932Y-102823602D01*
X171376903Y-102823546D01*
X171488730Y-102818082D01*
X171489737Y-102818042D01*
X171489944Y-102818036D01*
X171491039Y-102818016D01*
X171596057Y-102817236D01*
X171597181Y-102817240D01*
G37*
G36*
X178181503Y-71139946D02*
G01*
X178191343Y-71141457D01*
X178192293Y-71141700D01*
X178199681Y-71144208D01*
X178200179Y-71144421D01*
X178202632Y-71145548D01*
X178228574Y-71158314D01*
X178232217Y-71160295D01*
X178232921Y-71160716D01*
X178236430Y-71163017D01*
X178286333Y-71198762D01*
X178287299Y-71199471D01*
X178287489Y-71199614D01*
X178288456Y-71200360D01*
X178357852Y-71255250D01*
X178358573Y-71255831D01*
X178358668Y-71255909D01*
X178358913Y-71256112D01*
X178443335Y-71326315D01*
X178443557Y-71326501D01*
X178443620Y-71326554D01*
X178444041Y-71326912D01*
X178539020Y-71408597D01*
X178539506Y-71409020D01*
X178539557Y-71409065D01*
X178539590Y-71409094D01*
X178640659Y-71498427D01*
X178640912Y-71498652D01*
X178640960Y-71498695D01*
X178641194Y-71498906D01*
X178743886Y-71592056D01*
X178744459Y-71592582D01*
X178844304Y-71685715D01*
X178844553Y-71685949D01*
X178844608Y-71686001D01*
X178844919Y-71686298D01*
X178921813Y-71760238D01*
X178922363Y-71760775D01*
X178922476Y-71760887D01*
X178923073Y-71761488D01*
X179160214Y-72004507D01*
X179161205Y-72005552D01*
X179161394Y-72005757D01*
X179162328Y-72006798D01*
X179366181Y-72240502D01*
X179367255Y-72241776D01*
X179367468Y-72242037D01*
X179368554Y-72243416D01*
X179542432Y-72472178D01*
X179543575Y-72473742D01*
X179543796Y-72474057D01*
X179544898Y-72475694D01*
X179692115Y-72703891D01*
X179693235Y-72705711D01*
X179693444Y-72706067D01*
X179694449Y-72707861D01*
X179818315Y-72939868D01*
X179818846Y-72940890D01*
X179818945Y-72941086D01*
X179819421Y-72942053D01*
X179825247Y-72954222D01*
X179825652Y-72955089D01*
X179825719Y-72955236D01*
X179826000Y-72955863D01*
X179898670Y-73121191D01*
X179899466Y-73123108D01*
X179899616Y-73123491D01*
X179900342Y-73125464D01*
X179953236Y-73278945D01*
X179953991Y-73281324D01*
X179954129Y-73281799D01*
X179954774Y-73284244D01*
X179991919Y-73440794D01*
X179992383Y-73442958D01*
X179992466Y-73443391D01*
X179992843Y-73445632D01*
X180018267Y-73620165D01*
X180018430Y-73621382D01*
X180018457Y-73621605D01*
X180018572Y-73622650D01*
X180026026Y-73697099D01*
X180026025Y-73697099D01*
X180026035Y-73697187D01*
X180035028Y-73788457D01*
X180047988Y-73908777D01*
X180063817Y-74048482D01*
X180081369Y-74197550D01*
X180099589Y-74346712D01*
X180105385Y-74392921D01*
X180105386Y-74392927D01*
X180121030Y-74516743D01*
X180140636Y-74671926D01*
X180163271Y-74851071D01*
X180187999Y-75046774D01*
X180213884Y-75251634D01*
X180239991Y-75458247D01*
X180265384Y-75659210D01*
X180269557Y-75692234D01*
X180269558Y-75692246D01*
X180269559Y-75692246D01*
X180302332Y-75952075D01*
X180302336Y-75952139D01*
X180302339Y-75952139D01*
X180330556Y-76177941D01*
X180330555Y-76177941D01*
X180330574Y-76178082D01*
X180354624Y-76374593D01*
X180354621Y-76374593D01*
X180354653Y-76374836D01*
X180374929Y-76546790D01*
X180374968Y-76547167D01*
X180374972Y-76547167D01*
X180391865Y-76699302D01*
X180391902Y-76699645D01*
X180391907Y-76699693D01*
X180391921Y-76699830D01*
X180405820Y-76836879D01*
X180405827Y-76836950D01*
X180405833Y-76837010D01*
X180405884Y-76837553D01*
X180417182Y-76964254D01*
X180417197Y-76964428D01*
X180417203Y-76964498D01*
X180417247Y-76965034D01*
X180426334Y-77086121D01*
X180426354Y-77086404D01*
X180426359Y-77086476D01*
X180426388Y-77086930D01*
X180433655Y-77207139D01*
X180433694Y-77207883D01*
X180433695Y-77207883D01*
X180439533Y-77331949D01*
X180439531Y-77331949D01*
X180439559Y-77332554D01*
X180444359Y-77465213D01*
X180444372Y-77465644D01*
X180448526Y-77611632D01*
X180448525Y-77611632D01*
X180448534Y-77611894D01*
X180452431Y-77775946D01*
X180452432Y-77776066D01*
X180452433Y-77776066D01*
X180456290Y-77954647D01*
X180465061Y-78338404D01*
X180474424Y-78686226D01*
X180484542Y-79000922D01*
X180495582Y-79285705D01*
X180507714Y-79543668D01*
X180521100Y-79777824D01*
X180535897Y-79991193D01*
X180552285Y-80187048D01*
X180570409Y-80368237D01*
X180590477Y-80538259D01*
X180602024Y-80625357D01*
X180619847Y-80756287D01*
X180619845Y-80756287D01*
X180619877Y-80756511D01*
X180636291Y-80880850D01*
X180636327Y-80881134D01*
X180636328Y-80881134D01*
X180651827Y-81003382D01*
X180651824Y-81003382D01*
X180651866Y-81003697D01*
X180666971Y-81128545D01*
X180667006Y-81128860D01*
X180667008Y-81128860D01*
X180682236Y-81261000D01*
X180682268Y-81261280D01*
X180698140Y-81405401D01*
X180698164Y-81405630D01*
X180715200Y-81566425D01*
X180715199Y-81566425D01*
X180715219Y-81566600D01*
X180733938Y-81748760D01*
X180733950Y-81748885D01*
X180754871Y-81957101D01*
X180754880Y-81957186D01*
X180778523Y-82196150D01*
X180778525Y-82196198D01*
X180778527Y-82196198D01*
X180798070Y-82395466D01*
X180817627Y-82594487D01*
X180837465Y-82794651D01*
X180837465Y-82794660D01*
X180856955Y-82989712D01*
X180875490Y-83173688D01*
X180892450Y-83340411D01*
X180892453Y-83340421D01*
X180907229Y-83483877D01*
X180907228Y-83483877D01*
X180919189Y-83597801D01*
X180924315Y-83645409D01*
X180924313Y-83645409D01*
X180924365Y-83645884D01*
X180934558Y-83748808D01*
X180934617Y-83749451D01*
X180934618Y-83749457D01*
X180946712Y-83888073D01*
X180946711Y-83888073D01*
X180946743Y-83888444D01*
X180960513Y-84059426D01*
X180960512Y-84059426D01*
X180960533Y-84059671D01*
X180975754Y-84259692D01*
X180975766Y-84259872D01*
X180975767Y-84259872D01*
X180992213Y-84485605D01*
X180992212Y-84485605D01*
X180992223Y-84485745D01*
X181009669Y-84733864D01*
X181009673Y-84733982D01*
X181009676Y-84733982D01*
X181027896Y-85001159D01*
X181027895Y-85001159D01*
X181027904Y-85001261D01*
X181046674Y-85284171D01*
X181046671Y-85284171D01*
X181046680Y-85284264D01*
X181065774Y-85579580D01*
X181065777Y-85579669D01*
X181065779Y-85579669D01*
X181084972Y-85884064D01*
X181084970Y-85884064D01*
X181084978Y-85884152D01*
X181104045Y-86194298D01*
X181104048Y-86194387D01*
X181104050Y-86194387D01*
X181122765Y-86506960D01*
X181122763Y-86506960D01*
X181122771Y-86507054D01*
X181140908Y-86818725D01*
X181140910Y-86818798D01*
X181140912Y-86818798D01*
X181149489Y-86969611D01*
X181183965Y-87549768D01*
X181220271Y-88100938D01*
X181258315Y-88622343D01*
X181298011Y-89113161D01*
X181339215Y-89571847D01*
X181381841Y-89997593D01*
X181425772Y-90389231D01*
X181470886Y-90745602D01*
X181517069Y-91065633D01*
X181564206Y-91348255D01*
X181597778Y-91523627D01*
X181625003Y-91653847D01*
X181651470Y-91771716D01*
X181679295Y-91885076D01*
X181710638Y-92001956D01*
X181747785Y-92130798D01*
X181792921Y-92279641D01*
X181848137Y-92456229D01*
X181858377Y-92488620D01*
X181858403Y-92488702D01*
X181858414Y-92488737D01*
X181858498Y-92489009D01*
X182006672Y-92969874D01*
X182006717Y-92970018D01*
X182006742Y-92970100D01*
X182006948Y-92970794D01*
X182136502Y-93418490D01*
X182136679Y-93419118D01*
X182136706Y-93419216D01*
X182136806Y-93419583D01*
X182247960Y-93835172D01*
X182248093Y-93835681D01*
X182248123Y-93835798D01*
X182248292Y-93836477D01*
X182341268Y-94221024D01*
X182341414Y-94221643D01*
X182341446Y-94221783D01*
X182341623Y-94222587D01*
X182416642Y-94577155D01*
X182416855Y-94578219D01*
X182416887Y-94578388D01*
X182417006Y-94579039D01*
X182474287Y-94904694D01*
X182474441Y-94905622D01*
X182474473Y-94905826D01*
X182474640Y-94906975D01*
X182514405Y-95204781D01*
X182514556Y-95206028D01*
X182514583Y-95206277D01*
X182514705Y-95207555D01*
X182537176Y-95478574D01*
X182537279Y-95480093D01*
X182537295Y-95480396D01*
X182537354Y-95481958D01*
X182542749Y-95727257D01*
X182542761Y-95728374D01*
X182542761Y-95728596D01*
X182542748Y-95729729D01*
X182541492Y-95786013D01*
X182541462Y-95786966D01*
X182541456Y-95787112D01*
X182541431Y-95787646D01*
X182532174Y-95966861D01*
X182532062Y-95968510D01*
X182532034Y-95968842D01*
X182531859Y-95970567D01*
X182514480Y-96116825D01*
X182514043Y-96119767D01*
X182513939Y-96120349D01*
X182513317Y-96123317D01*
X182484605Y-96242430D01*
X182483338Y-96246811D01*
X182483050Y-96247662D01*
X182481388Y-96251929D01*
X182438132Y-96349705D01*
X182435568Y-96354727D01*
X182435011Y-96355683D01*
X182431919Y-96360373D01*
X182370910Y-96442624D01*
X182367514Y-96446733D01*
X182366811Y-96447498D01*
X182363070Y-96451169D01*
X182281097Y-96523705D01*
X182278194Y-96526089D01*
X182277596Y-96526544D01*
X182274417Y-96528776D01*
X182168270Y-96597407D01*
X182166461Y-96598524D01*
X182166106Y-96598733D01*
X182164306Y-96599744D01*
X182057295Y-96657022D01*
X182056548Y-96657414D01*
X182056406Y-96657487D01*
X182055719Y-96657833D01*
X181957985Y-96706219D01*
X181957181Y-96706608D01*
X181957012Y-96706688D01*
X181956095Y-96707112D01*
X181882847Y-96740019D01*
X181880853Y-96740863D01*
X181880467Y-96741017D01*
X181878543Y-96741741D01*
X181819962Y-96762406D01*
X181816921Y-96763372D01*
X181816318Y-96763543D01*
X181813232Y-96764315D01*
X181759500Y-96775975D01*
X181756687Y-96776503D01*
X181756126Y-96776592D01*
X181753237Y-96776965D01*
X181694535Y-96782854D01*
X181693291Y-96782964D01*
X181693066Y-96782981D01*
X181692021Y-96783049D01*
X181667388Y-96784400D01*
X181667388Y-96784399D01*
X181666999Y-96784420D01*
X181526307Y-96791152D01*
X181521340Y-96791146D01*
X181520361Y-96791097D01*
X181510506Y-96789626D01*
X181509556Y-96789387D01*
X181498760Y-96785320D01*
X181497614Y-96784732D01*
X181491995Y-96781375D01*
X181345456Y-96680477D01*
X181344801Y-96680018D01*
X181344676Y-96679929D01*
X181344061Y-96679485D01*
X181211060Y-96581762D01*
X181209254Y-96580371D01*
X181208903Y-96580088D01*
X181207137Y-96578597D01*
X181110018Y-96492720D01*
X181107111Y-96489937D01*
X181106562Y-96489368D01*
X181103890Y-96486370D01*
X181041791Y-96410889D01*
X181037529Y-96404864D01*
X181036780Y-96403623D01*
X181033434Y-96397042D01*
X181005493Y-96330506D01*
X181003788Y-96325809D01*
X181003499Y-96324872D01*
X181001321Y-96312733D01*
X181001240Y-96311283D01*
X181001369Y-96303863D01*
X181006722Y-96244824D01*
X181007417Y-96239877D01*
X181007601Y-96238914D01*
X181010410Y-96229385D01*
X181010778Y-96228476D01*
X181014604Y-96220911D01*
X181014961Y-96220331D01*
X181016861Y-96217467D01*
X181054647Y-96164473D01*
X181058267Y-96159962D01*
X181059031Y-96159114D01*
X181063178Y-96155012D01*
X181074077Y-96145403D01*
X181077993Y-96142279D01*
X181078789Y-96141706D01*
X181085611Y-96137568D01*
X181086135Y-96137304D01*
X181088806Y-96136054D01*
X181120160Y-96122477D01*
X181123561Y-96121147D01*
X181124238Y-96120910D01*
X181127713Y-96119832D01*
X181187438Y-96103617D01*
X181188912Y-96103240D01*
X181189200Y-96103171D01*
X181190648Y-96102846D01*
X181268392Y-96086605D01*
X181269208Y-96086442D01*
X181269380Y-96086409D01*
X181270316Y-96086238D01*
X181312035Y-96079041D01*
X181431649Y-96055862D01*
X181510993Y-96031207D01*
X181552882Y-96007093D01*
X181569549Y-95984818D01*
X181570567Y-95980745D01*
X181563898Y-95945810D01*
X181532931Y-95906118D01*
X181473628Y-95865289D01*
X181390955Y-95832422D01*
X181334548Y-95819634D01*
X181334548Y-95819633D01*
X181334401Y-95819600D01*
X181216600Y-95792559D01*
X181211869Y-95791230D01*
X181210950Y-95790923D01*
X181206342Y-95789130D01*
X181123180Y-95752015D01*
X181118730Y-95749760D01*
X181117879Y-95749275D01*
X181110639Y-95744271D01*
X181110064Y-95743795D01*
X181107261Y-95741295D01*
X181054931Y-95691014D01*
X181051518Y-95687396D01*
X181050881Y-95686651D01*
X181044580Y-95677380D01*
X181044008Y-95676298D01*
X181041438Y-95670616D01*
X181016130Y-95604078D01*
X181014051Y-95597174D01*
X181013739Y-95595788D01*
X181012656Y-95588617D01*
X181008858Y-95540349D01*
X181008712Y-95535327D01*
X181008732Y-95534347D01*
X181009434Y-95526903D01*
X181009519Y-95526401D01*
X181010028Y-95523808D01*
X181027786Y-95444308D01*
X181029119Y-95439473D01*
X181029426Y-95438542D01*
X181034427Y-95427793D01*
X181035139Y-95426638D01*
X181039151Y-95421023D01*
X181091420Y-95357483D01*
X181094757Y-95353809D01*
X181095451Y-95353116D01*
X181102900Y-95346974D01*
X181103662Y-95346459D01*
X181107677Y-95344009D01*
X181192949Y-95297234D01*
X181198849Y-95294473D01*
X181200041Y-95294006D01*
X181206246Y-95292024D01*
X181323014Y-95262820D01*
X181327326Y-95261938D01*
X181328171Y-95261803D01*
X181332447Y-95261305D01*
X181479204Y-95250476D01*
X181480894Y-95250379D01*
X181481241Y-95250365D01*
X181483075Y-95250324D01*
X181492610Y-95250284D01*
X181596710Y-95242159D01*
X181670420Y-95221391D01*
X181711148Y-95195329D01*
X181723429Y-95174063D01*
X181720433Y-95145613D01*
X181714092Y-95133611D01*
X181681088Y-95097642D01*
X181628972Y-95067761D01*
X181545678Y-95041218D01*
X181436587Y-95019747D01*
X181436305Y-95019690D01*
X181436231Y-95019675D01*
X181435752Y-95019576D01*
X181302339Y-94991192D01*
X181298624Y-94990254D01*
X181297904Y-94990043D01*
X181294306Y-94988841D01*
X181189602Y-94949459D01*
X181184690Y-94947309D01*
X181183750Y-94946837D01*
X181179113Y-94944195D01*
X181093263Y-94889112D01*
X181089290Y-94886285D01*
X181088531Y-94885688D01*
X181084797Y-94882445D01*
X181018798Y-94819227D01*
X181015722Y-94816010D01*
X181015151Y-94815358D01*
X181012417Y-94811952D01*
X180939847Y-94713101D01*
X180936160Y-94707290D01*
X180935514Y-94706101D01*
X180932642Y-94699837D01*
X180897011Y-94605730D01*
X180895484Y-94601012D01*
X180895228Y-94600066D01*
X180893600Y-94590510D01*
X180893533Y-94589596D01*
X180893405Y-94584966D01*
X180894986Y-94497269D01*
X180895316Y-94492331D01*
X180895429Y-94491357D01*
X180897921Y-94480491D01*
X180898318Y-94479352D01*
X180900683Y-94473694D01*
X180939751Y-94394076D01*
X180942526Y-94389136D01*
X180943123Y-94388200D01*
X180946408Y-94383631D01*
X180953220Y-94375183D01*
X180955413Y-94372639D01*
X180955861Y-94372153D01*
X180958221Y-94369758D01*
X180997192Y-94332728D01*
X181001373Y-94329164D01*
X181002229Y-94328511D01*
X181006742Y-94325438D01*
X181060359Y-94292997D01*
X181063752Y-94291117D01*
X181064433Y-94290773D01*
X181067961Y-94289157D01*
X181143264Y-94258084D01*
X181145252Y-94257312D01*
X181145650Y-94257167D01*
X181147709Y-94256466D01*
X181251735Y-94223538D01*
X181252612Y-94223269D01*
X181252767Y-94223223D01*
X181253459Y-94223023D01*
X181301821Y-94209414D01*
X181388052Y-94176414D01*
X181434659Y-94141503D01*
X181450473Y-94110339D01*
X181449839Y-94095835D01*
X181430563Y-94058552D01*
X181378362Y-93997385D01*
X181297137Y-93921607D01*
X181192324Y-93837414D01*
X181071166Y-93751023D01*
X180910487Y-93637737D01*
X180909333Y-93636899D01*
X180909091Y-93636718D01*
X180907788Y-93635711D01*
X180775954Y-93530275D01*
X180774215Y-93528819D01*
X180773877Y-93528523D01*
X180772182Y-93526970D01*
X180662702Y-93421973D01*
X180660712Y-93419954D01*
X180660339Y-93419554D01*
X180658537Y-93417515D01*
X180564674Y-93305375D01*
X180563012Y-93303280D01*
X180562692Y-93302854D01*
X180561103Y-93300615D01*
X180476119Y-93173748D01*
X180474948Y-93171916D01*
X180474731Y-93171560D01*
X180473696Y-93169783D01*
X180390856Y-93020607D01*
X180390424Y-93019812D01*
X180390325Y-93019626D01*
X180389757Y-93018527D01*
X180349193Y-92937624D01*
X180348808Y-92936838D01*
X180348748Y-92936713D01*
X180348518Y-92936228D01*
X180294052Y-92819618D01*
X180293764Y-92818990D01*
X180293691Y-92818828D01*
X180293245Y-92817808D01*
X180240286Y-92693048D01*
X180239923Y-92692170D01*
X180239861Y-92692016D01*
X180239589Y-92691328D01*
X180186524Y-92553774D01*
X180186210Y-92552936D01*
X180186161Y-92552802D01*
X180185975Y-92552286D01*
X180131190Y-92397292D01*
X180131075Y-92396964D01*
X180131038Y-92396857D01*
X180130782Y-92396096D01*
X180072663Y-92219015D01*
X180072561Y-92218700D01*
X180072535Y-92218619D01*
X180072374Y-92218110D01*
X180009308Y-92014296D01*
X180009112Y-92013640D01*
X180009111Y-92013640D01*
X179939484Y-91778448D01*
X179939408Y-91778192D01*
X179939399Y-91778161D01*
X179939383Y-91778103D01*
X179906501Y-91664342D01*
X179906500Y-91664342D01*
X179906491Y-91664311D01*
X179906383Y-91663930D01*
X179800569Y-91288558D01*
X179800492Y-91288284D01*
X179800476Y-91288226D01*
X179800390Y-91287911D01*
X179707712Y-90943326D01*
X179707607Y-90942928D01*
X179707588Y-90942855D01*
X179707501Y-90942518D01*
X179626715Y-90623171D01*
X179626582Y-90622632D01*
X179626561Y-90622545D01*
X179626480Y-90622202D01*
X179556343Y-90322544D01*
X179556324Y-90322463D01*
X179556301Y-90322364D01*
X179556095Y-90321437D01*
X179495362Y-90035921D01*
X179495201Y-90035135D01*
X179495180Y-90035028D01*
X179495120Y-90034720D01*
X179442548Y-89757796D01*
X179442462Y-89757329D01*
X179442442Y-89757218D01*
X179442328Y-89756563D01*
X179396674Y-89482683D01*
X179396574Y-89482055D01*
X179396558Y-89481951D01*
X179396494Y-89481522D01*
X179358261Y-89218089D01*
X179358263Y-89218089D01*
X179358200Y-89217667D01*
X179297937Y-88778856D01*
X179237187Y-88349253D01*
X179176294Y-87930853D01*
X179115663Y-87526095D01*
X179055569Y-87136536D01*
X178996528Y-86765312D01*
X178938779Y-86413799D01*
X178882789Y-86084768D01*
X178828922Y-85780373D01*
X178777449Y-85502265D01*
X178728967Y-85253843D01*
X178683689Y-85036437D01*
X178642082Y-84852687D01*
X178604569Y-84704903D01*
X178588329Y-84648006D01*
X178588181Y-84647479D01*
X178588158Y-84647395D01*
X178588070Y-84647067D01*
X178539886Y-84466359D01*
X178539624Y-84465334D01*
X178539569Y-84465109D01*
X178539277Y-84463846D01*
X178492141Y-84247206D01*
X178491955Y-84246311D01*
X178491922Y-84246145D01*
X178491772Y-84245356D01*
X178445635Y-83992416D01*
X178445501Y-83991651D01*
X178445480Y-83991525D01*
X178445396Y-83991005D01*
X178400211Y-83701394D01*
X178400177Y-83701173D01*
X178400162Y-83701074D01*
X178400049Y-83700288D01*
X178355766Y-83373638D01*
X178355698Y-83373115D01*
X178355688Y-83373035D01*
X178355654Y-83372751D01*
X178312226Y-83008693D01*
X178312160Y-83008115D01*
X178312153Y-83008050D01*
X178312144Y-83007969D01*
X178269522Y-82606133D01*
X178269523Y-82606133D01*
X178269461Y-82605534D01*
X178227596Y-82165553D01*
X178227559Y-82165142D01*
X178227555Y-82165096D01*
X178227551Y-82165048D01*
X178186396Y-81686551D01*
X178186370Y-81686223D01*
X178186369Y-81686223D01*
X178165732Y-81428451D01*
X178165731Y-81428414D01*
X178165729Y-81428414D01*
X178150408Y-81235410D01*
X178135873Y-81059478D01*
X178121523Y-80894727D01*
X178106728Y-80735015D01*
X178090851Y-80574095D01*
X178073316Y-80406403D01*
X178053490Y-80225784D01*
X178030795Y-80026594D01*
X178004558Y-79802327D01*
X177974218Y-79547501D01*
X177962040Y-79446014D01*
X177962041Y-79446014D01*
X177962033Y-79445962D01*
X177927649Y-79157197D01*
X177927651Y-79157197D01*
X177927630Y-79157035D01*
X177898133Y-78902944D01*
X177898108Y-78902712D01*
X177898107Y-78902712D01*
X177873111Y-78679248D01*
X177873077Y-78678929D01*
X177873076Y-78678929D01*
X177852196Y-78482046D01*
X177852192Y-78482007D01*
X177852188Y-78481969D01*
X177852153Y-78481624D01*
X177835004Y-78307274D01*
X177835005Y-78307274D01*
X177834953Y-78306734D01*
X177821150Y-78150873D01*
X177821098Y-78150216D01*
X177821097Y-78150216D01*
X177810255Y-78008796D01*
X177810247Y-78008694D01*
X177810242Y-78008627D01*
X177810202Y-78008045D01*
X177801935Y-77877020D01*
X177801912Y-77876639D01*
X177801908Y-77876567D01*
X177801890Y-77876221D01*
X177795815Y-77751544D01*
X177795816Y-77751544D01*
X177795786Y-77750882D01*
X177792620Y-77664898D01*
X177792615Y-77664640D01*
X177792612Y-77664640D01*
X177780976Y-77303178D01*
X177781058Y-77298227D01*
X177781122Y-77297249D01*
X177782285Y-77289274D01*
X177782417Y-77288695D01*
X177783165Y-77285807D01*
X177864793Y-77005001D01*
X177864817Y-77004918D01*
X177894273Y-76904175D01*
X177894327Y-76903996D01*
X177894326Y-76903996D01*
X177920584Y-76815288D01*
X177920587Y-76815289D01*
X177920656Y-76815047D01*
X177927259Y-76793106D01*
X177920906Y-76796089D01*
X177920130Y-76796446D01*
X177920061Y-76796477D01*
X177753030Y-76871864D01*
X177750266Y-76873015D01*
X177749706Y-76873229D01*
X177746784Y-76874245D01*
X177602501Y-76919529D01*
X177597990Y-76920720D01*
X177597099Y-76920912D01*
X177592556Y-76921677D01*
X177468989Y-76936768D01*
X177462293Y-76937140D01*
X177460972Y-76937126D01*
X177454248Y-76936607D01*
X177349283Y-76921447D01*
X177344358Y-76920486D01*
X177343407Y-76920251D01*
X177335474Y-76917580D01*
X177334855Y-76917313D01*
X177331757Y-76915851D01*
X177243282Y-76870388D01*
X177238982Y-76867906D01*
X177238158Y-76867375D01*
X177231661Y-76862404D01*
X177231194Y-76861983D01*
X177228877Y-76859757D01*
X177154779Y-76783932D01*
X177152064Y-76780923D01*
X177151558Y-76780315D01*
X177149130Y-76777152D01*
X177136329Y-76759052D01*
X177135208Y-76757400D01*
X177134989Y-76757063D01*
X177133890Y-76755293D01*
X177100644Y-76699228D01*
X177098847Y-76695926D01*
X177098517Y-76695262D01*
X177096961Y-76691814D01*
X177072480Y-76631705D01*
X177071168Y-76628100D01*
X177070938Y-76627385D01*
X177069911Y-76623727D01*
X177052582Y-76551797D01*
X177052010Y-76549102D01*
X177051912Y-76548570D01*
X177051487Y-76545857D01*
X177039696Y-76454327D01*
X177039518Y-76452746D01*
X177039488Y-76452437D01*
X177039361Y-76450882D01*
X177031493Y-76331975D01*
X177031461Y-76331461D01*
X177031454Y-76331336D01*
X177031418Y-76330583D01*
X177028449Y-76258367D01*
X177028416Y-76257301D01*
X177028412Y-76257102D01*
X177028402Y-76256146D01*
X177028192Y-76091844D01*
X177028207Y-76090525D01*
X177028213Y-76090282D01*
X177028255Y-76089127D01*
X177037554Y-75893271D01*
X177037586Y-75892679D01*
X177037596Y-75892510D01*
X177037675Y-75891389D01*
X177055690Y-75670119D01*
X177055774Y-75669186D01*
X177055787Y-75669056D01*
X177055828Y-75668666D01*
X177081762Y-75428123D01*
X177081820Y-75427606D01*
X177081833Y-75427496D01*
X177081908Y-75426893D01*
X177114967Y-75173217D01*
X177115022Y-75172807D01*
X177115036Y-75172706D01*
X177115125Y-75172091D01*
X177154513Y-74911421D01*
X177154594Y-74910906D01*
X177154610Y-74910807D01*
X177154692Y-74910312D01*
X177199614Y-74648789D01*
X177199693Y-74648344D01*
X177199712Y-74648239D01*
X177199828Y-74647618D01*
X177249489Y-74391382D01*
X177249651Y-74390583D01*
X177249675Y-74390469D01*
X177249750Y-74390118D01*
X177299166Y-74163348D01*
X177299211Y-74163144D01*
X177299233Y-74163045D01*
X177299420Y-74162235D01*
X177323191Y-74062962D01*
X177323329Y-74062409D01*
X177323327Y-74062409D01*
X177354593Y-73937477D01*
X177354595Y-73937477D01*
X177354678Y-73937138D01*
X177392497Y-73789955D01*
X177392560Y-73789722D01*
X177392558Y-73789721D01*
X177435986Y-73623694D01*
X177435987Y-73623694D01*
X177436032Y-73623518D01*
X177484128Y-73442054D01*
X177484130Y-73442055D01*
X177484165Y-73441914D01*
X177535987Y-73248418D01*
X177536020Y-73248301D01*
X177536019Y-73248301D01*
X177590622Y-73046181D01*
X177590653Y-73046078D01*
X177590651Y-73046077D01*
X177647095Y-72838739D01*
X177647097Y-72838739D01*
X177647121Y-72838642D01*
X177704463Y-72629494D01*
X177704465Y-72629495D01*
X177704489Y-72629399D01*
X177761786Y-72421847D01*
X177761817Y-72421751D01*
X177761813Y-72421750D01*
X177818123Y-72219200D01*
X177818127Y-72219201D01*
X177818152Y-72219095D01*
X177872532Y-72024955D01*
X177872566Y-72024836D01*
X177872565Y-72024836D01*
X177924073Y-71842511D01*
X177924115Y-71842367D01*
X177971808Y-71675266D01*
X177971921Y-71674874D01*
X177971926Y-71674857D01*
X178014798Y-71526607D01*
X178014830Y-71526495D01*
X178014837Y-71526471D01*
X178014874Y-71526343D01*
X178052111Y-71399907D01*
X178052148Y-71399783D01*
X178052159Y-71399746D01*
X178052235Y-71399494D01*
X178082829Y-71298502D01*
X178082848Y-71298439D01*
X178082869Y-71298370D01*
X178083070Y-71297725D01*
X178106080Y-71225582D01*
X178106415Y-71224569D01*
X178106479Y-71224382D01*
X178106792Y-71223493D01*
X178121275Y-71183606D01*
X178123203Y-71179013D01*
X178123628Y-71178125D01*
X178126019Y-71173705D01*
X178130288Y-71166669D01*
X178133079Y-71162540D01*
X178133667Y-71161756D01*
X178140410Y-71154399D01*
X178141140Y-71153745D01*
X178149183Y-71147853D01*
X178150027Y-71147354D01*
X178158979Y-71143177D01*
X178159903Y-71142851D01*
X178169657Y-71140462D01*
X178170628Y-71140324D01*
X178180525Y-71139893D01*
X178181503Y-71139946D01*
G37*
G36*
X165625835Y-71227743D02*
G01*
X165626807Y-71227865D01*
X165636545Y-71230077D01*
X165637475Y-71230387D01*
X165647408Y-71234936D01*
X165648422Y-71235540D01*
X165653418Y-71238934D01*
X165673820Y-71254644D01*
X165677682Y-71257938D01*
X165678403Y-71258618D01*
X165681871Y-71262227D01*
X165720463Y-71306578D01*
X165721337Y-71307611D01*
X165721506Y-71307816D01*
X165722347Y-71308864D01*
X165776091Y-71377687D01*
X165776601Y-71378351D01*
X165776681Y-71378457D01*
X165776989Y-71378869D01*
X165842849Y-71467996D01*
X165842977Y-71468170D01*
X165843029Y-71468241D01*
X165843429Y-71468795D01*
X165918369Y-71574059D01*
X165918467Y-71574197D01*
X165918508Y-71574255D01*
X165918823Y-71574706D01*
X165999805Y-71691936D01*
X165999915Y-71692095D01*
X165999952Y-71692149D01*
X166000214Y-71692536D01*
X166084201Y-71817566D01*
X166084543Y-71818088D01*
X166084545Y-71818087D01*
X166142898Y-71907091D01*
X166143260Y-71907650D01*
X166143346Y-71907785D01*
X166143852Y-71908597D01*
X166402899Y-72332664D01*
X166403686Y-72333997D01*
X166403833Y-72334255D01*
X166404544Y-72335546D01*
X166626362Y-72752521D01*
X166627102Y-72753968D01*
X166627248Y-72754265D01*
X166627990Y-72755842D01*
X166813302Y-73167944D01*
X166814011Y-73169598D01*
X166814148Y-73169934D01*
X166814826Y-73171688D01*
X166964355Y-73581133D01*
X166964999Y-73583009D01*
X166965117Y-73583376D01*
X166965675Y-73585235D01*
X167080142Y-73994240D01*
X167080643Y-73996176D01*
X167080736Y-73996567D01*
X167081175Y-73998596D01*
X167161305Y-74409380D01*
X167161664Y-74411448D01*
X167161725Y-74411848D01*
X167161990Y-74413845D01*
X167208505Y-74828624D01*
X167208684Y-74830552D01*
X167208712Y-74830932D01*
X167208817Y-74832864D01*
X167222543Y-75219808D01*
X167222573Y-75221201D01*
X167222575Y-75221450D01*
X167222572Y-75222592D01*
X167220105Y-75393231D01*
X167220081Y-75394225D01*
X167220073Y-75394460D01*
X167220006Y-75395851D01*
X167211294Y-75537479D01*
X167211135Y-75539441D01*
X167211097Y-75539819D01*
X167210874Y-75541693D01*
X167193950Y-75664137D01*
X167193539Y-75666644D01*
X167193448Y-75667124D01*
X167192938Y-75669501D01*
X167165835Y-75782593D01*
X167165216Y-75784930D01*
X167165080Y-75785398D01*
X167164311Y-75787816D01*
X167125061Y-75901385D01*
X167124402Y-75903183D01*
X167124268Y-75903528D01*
X167123569Y-75905234D01*
X167070205Y-76029110D01*
X167069931Y-76029735D01*
X167069868Y-76029876D01*
X167069500Y-76030682D01*
X167053209Y-76065500D01*
X167052880Y-76066187D01*
X167052809Y-76066333D01*
X167052415Y-76067127D01*
X166992050Y-76185944D01*
X166991372Y-76187233D01*
X166991244Y-76187468D01*
X166990623Y-76188574D01*
X166919122Y-76312385D01*
X166918541Y-76313366D01*
X166918417Y-76313570D01*
X166917740Y-76314653D01*
X166832088Y-76447901D01*
X166831461Y-76448853D01*
X166831353Y-76449013D01*
X166830886Y-76449692D01*
X166728068Y-76596816D01*
X166727767Y-76597243D01*
X166727682Y-76597362D01*
X166727111Y-76598144D01*
X166604111Y-76763585D01*
X166603752Y-76764063D01*
X166603688Y-76764147D01*
X166603398Y-76764524D01*
X166457200Y-76952723D01*
X166456861Y-76953153D01*
X166456862Y-76953154D01*
X166416966Y-77003487D01*
X166280121Y-77177299D01*
X166166950Y-77325607D01*
X166074808Y-77452847D01*
X166001276Y-77563091D01*
X165943751Y-77660552D01*
X165899457Y-77749660D01*
X165865504Y-77835179D01*
X165839095Y-77922126D01*
X165817546Y-78015991D01*
X165814542Y-78031212D01*
X165796113Y-78132234D01*
X165780863Y-78230680D01*
X165768470Y-78331580D01*
X165758668Y-78439798D01*
X165751230Y-78560002D01*
X165745930Y-78697026D01*
X165742553Y-78855473D01*
X165740876Y-79039959D01*
X165740670Y-79254841D01*
X165741514Y-79471717D01*
X165741513Y-79471717D01*
X165742519Y-79681780D01*
X165742520Y-79682023D01*
X165742520Y-79682036D01*
X165742922Y-79858096D01*
X165742922Y-79858363D01*
X165742553Y-80005749D01*
X165742550Y-80006199D01*
X165741242Y-80129937D01*
X165741238Y-80130219D01*
X165741237Y-80130281D01*
X165741231Y-80130628D01*
X165738816Y-80235860D01*
X165738798Y-80236465D01*
X165738795Y-80236551D01*
X165738785Y-80236818D01*
X165735097Y-80328687D01*
X165735081Y-80329065D01*
X165735076Y-80329170D01*
X165735038Y-80329864D01*
X165729908Y-80413510D01*
X165729872Y-80414052D01*
X165729864Y-80414163D01*
X165729818Y-80414745D01*
X165723080Y-80495313D01*
X165723035Y-80495821D01*
X165723026Y-80495917D01*
X165722980Y-80496383D01*
X165714464Y-80579013D01*
X165714382Y-80579745D01*
X165714383Y-80579745D01*
X165703924Y-80669579D01*
X165703920Y-80669579D01*
X165703893Y-80669846D01*
X165701707Y-80687866D01*
X165701655Y-80688279D01*
X165701648Y-80688333D01*
X165701630Y-80688471D01*
X165650091Y-81077673D01*
X165650011Y-81078256D01*
X165649996Y-81078360D01*
X165649926Y-81078827D01*
X165589201Y-81473806D01*
X165589086Y-81474519D01*
X165589069Y-81474620D01*
X165589016Y-81474931D01*
X165518143Y-81880588D01*
X165518090Y-81880886D01*
X165518073Y-81880980D01*
X165517948Y-81881644D01*
X165435964Y-82302878D01*
X165435823Y-82303580D01*
X165435805Y-82303666D01*
X165435768Y-82303839D01*
X165341712Y-82745553D01*
X165341711Y-82745553D01*
X165341525Y-82746401D01*
X165234436Y-83213493D01*
X165234291Y-83214109D01*
X165234275Y-83214175D01*
X165234263Y-83214223D01*
X165113177Y-83711595D01*
X165113085Y-83711969D01*
X165090555Y-83801811D01*
X165090500Y-83802028D01*
X165060378Y-83920138D01*
X165060269Y-83920546D01*
X165060272Y-83920547D01*
X165030240Y-84034685D01*
X165030103Y-84035195D01*
X164999245Y-84148117D01*
X164999244Y-84148117D01*
X164999085Y-84148692D01*
X164966488Y-84263151D01*
X164966314Y-84263746D01*
X164966315Y-84263746D01*
X164931066Y-84382497D01*
X164930893Y-84383070D01*
X164892076Y-84508867D01*
X164891929Y-84509334D01*
X164891914Y-84509381D01*
X164891912Y-84509388D01*
X164848614Y-84644985D01*
X164848534Y-84645235D01*
X164848521Y-84645275D01*
X164848468Y-84645435D01*
X164799774Y-84793586D01*
X164799773Y-84793586D01*
X164799650Y-84793959D01*
X164744648Y-84957420D01*
X164744546Y-84957718D01*
X164744547Y-84957718D01*
X164682321Y-85139242D01*
X164682320Y-85139242D01*
X164682241Y-85139475D01*
X164611878Y-85341816D01*
X164611814Y-85341994D01*
X164611815Y-85341994D01*
X164532401Y-85567907D01*
X164532400Y-85567907D01*
X164532355Y-85568039D01*
X164442975Y-85820279D01*
X164442974Y-85820279D01*
X164442941Y-85820375D01*
X164342682Y-86101695D01*
X164342681Y-86101695D01*
X164342658Y-86101762D01*
X164230605Y-86414916D01*
X164230586Y-86414954D01*
X164230590Y-86414955D01*
X164135980Y-86678722D01*
X164135974Y-86678744D01*
X164048413Y-86923015D01*
X163959776Y-87170935D01*
X163871712Y-87417854D01*
X163871709Y-87417864D01*
X163785819Y-87659272D01*
X163703816Y-87890328D01*
X163703812Y-87890342D01*
X163627275Y-88106600D01*
X163627272Y-88106605D01*
X163557936Y-88303170D01*
X163557932Y-88303184D01*
X163497342Y-88475700D01*
X163497341Y-88475700D01*
X163447275Y-88619143D01*
X163447276Y-88619143D01*
X163419157Y-88700395D01*
X163419113Y-88700518D01*
X163419114Y-88700518D01*
X163331312Y-88952328D01*
X163331248Y-88952509D01*
X163331230Y-88952560D01*
X163331112Y-88952890D01*
X163251143Y-89174593D01*
X163251142Y-89174593D01*
X163250856Y-89175374D01*
X163175690Y-89374399D01*
X163175308Y-89375379D01*
X163175295Y-89375411D01*
X163175260Y-89375498D01*
X163101913Y-89559156D01*
X163101837Y-89559346D01*
X163101797Y-89559445D01*
X163101461Y-89560256D01*
X163026805Y-89736213D01*
X163026559Y-89736782D01*
X163026516Y-89736880D01*
X163026328Y-89737303D01*
X162947380Y-89912869D01*
X162947221Y-89913220D01*
X162947182Y-89913305D01*
X162946942Y-89913820D01*
X162860671Y-90096425D01*
X162860362Y-90097068D01*
X162860335Y-90097123D01*
X162860307Y-90097180D01*
X162792411Y-90236262D01*
X162792398Y-90236288D01*
X162792376Y-90236333D01*
X162792164Y-90236762D01*
X162727188Y-90366556D01*
X162727186Y-90366555D01*
X162726971Y-90366986D01*
X162652745Y-90512114D01*
X162652638Y-90512321D01*
X162652623Y-90512350D01*
X162652579Y-90512435D01*
X162571749Y-90667985D01*
X162571608Y-90668245D01*
X162571611Y-90668247D01*
X162486828Y-90829308D01*
X162486703Y-90829544D01*
X162400612Y-90991204D01*
X162400488Y-90991436D01*
X162315741Y-91148785D01*
X162315613Y-91149022D01*
X162315601Y-91149044D01*
X162234849Y-91297160D01*
X162234654Y-91297514D01*
X162234639Y-91297541D01*
X162160566Y-91431450D01*
X162160521Y-91431532D01*
X162160501Y-91431568D01*
X162160341Y-91431853D01*
X162095560Y-91546710D01*
X162095528Y-91546767D01*
X162095149Y-91547430D01*
X162042255Y-91638418D01*
X162041932Y-91638966D01*
X162041865Y-91639078D01*
X162041508Y-91639665D01*
X162003198Y-91701784D01*
X162002711Y-91702559D01*
X162002616Y-91702707D01*
X162002138Y-91703437D01*
X161996269Y-91712244D01*
X161995465Y-91713415D01*
X161995315Y-91713627D01*
X161994598Y-91714614D01*
X161907369Y-91831820D01*
X161906502Y-91832952D01*
X161906319Y-91833184D01*
X161905326Y-91834404D01*
X161794504Y-91966286D01*
X161793785Y-91967123D01*
X161793641Y-91967287D01*
X161792896Y-91968117D01*
X161666285Y-92106078D01*
X161665539Y-92106873D01*
X161665402Y-92107016D01*
X161664753Y-92107681D01*
X161530152Y-92243128D01*
X161529487Y-92243785D01*
X161529354Y-92243914D01*
X161528670Y-92244566D01*
X161429664Y-92337084D01*
X161429494Y-92337242D01*
X161429467Y-92337267D01*
X161429361Y-92337365D01*
X161271892Y-92482339D01*
X161143816Y-92608484D01*
X161041815Y-92721381D01*
X160962594Y-92826365D01*
X160902389Y-92929226D01*
X160857305Y-93036455D01*
X160823897Y-93154933D01*
X160799295Y-93291152D01*
X160780761Y-93451167D01*
X160773941Y-93528997D01*
X160763573Y-93675147D01*
X160760195Y-93788469D01*
X160764718Y-93875855D01*
X160777650Y-93945275D01*
X160800027Y-94006521D01*
X160834524Y-94069792D01*
X160873739Y-94128839D01*
X161000711Y-94311366D01*
X161000919Y-94311672D01*
X161000921Y-94311671D01*
X161107024Y-94466376D01*
X161107057Y-94466424D01*
X161107420Y-94466959D01*
X161194254Y-94596766D01*
X161194623Y-94597326D01*
X161194675Y-94597406D01*
X161194839Y-94597660D01*
X161264235Y-94705828D01*
X161264594Y-94706395D01*
X161264675Y-94706525D01*
X161265135Y-94707279D01*
X161318964Y-94797117D01*
X161319613Y-94798230D01*
X161319730Y-94798437D01*
X161320273Y-94799424D01*
X161360399Y-94874241D01*
X161361211Y-94875821D01*
X161361367Y-94876138D01*
X161362141Y-94877785D01*
X161390433Y-94940888D01*
X161391394Y-94943179D01*
X161391573Y-94943637D01*
X161392426Y-94945991D01*
X161410752Y-95000690D01*
X161411635Y-95003612D01*
X161411791Y-95004191D01*
X161412494Y-95007151D01*
X161422719Y-95056753D01*
X161423239Y-95059718D01*
X161423325Y-95060311D01*
X161423675Y-95063373D01*
X161427669Y-95111187D01*
X161427774Y-95112737D01*
X161427790Y-95113040D01*
X161427848Y-95114574D01*
X161428060Y-95123981D01*
X161428067Y-95125922D01*
X161428061Y-95126305D01*
X161427993Y-95128255D01*
X161424408Y-95194488D01*
X161423892Y-95199463D01*
X161423743Y-95200432D01*
X161421903Y-95208234D01*
X161421722Y-95208798D01*
X161420733Y-95211598D01*
X161405268Y-95251589D01*
X161403262Y-95256109D01*
X161402821Y-95256985D01*
X161396924Y-95266113D01*
X161396200Y-95267007D01*
X161392261Y-95271335D01*
X161374735Y-95288494D01*
X161371019Y-95291792D01*
X161370255Y-95292406D01*
X161361279Y-95298182D01*
X161360288Y-95298681D01*
X161355153Y-95300920D01*
X161293114Y-95323999D01*
X161288369Y-95325504D01*
X161287422Y-95325754D01*
X161278526Y-95327274D01*
X161277730Y-95327338D01*
X161273661Y-95327501D01*
X161186879Y-95327504D01*
X161181494Y-95327218D01*
X161180443Y-95327106D01*
X161175146Y-95326257D01*
X161070061Y-95303660D01*
X161067011Y-95302904D01*
X161066409Y-95302735D01*
X161063341Y-95301768D01*
X160993712Y-95277371D01*
X160991212Y-95276421D01*
X160990725Y-95276221D01*
X160988285Y-95275143D01*
X160893876Y-95230446D01*
X160892152Y-95229590D01*
X160891814Y-95229414D01*
X160890103Y-95228480D01*
X160775778Y-95163258D01*
X160774598Y-95162564D01*
X160774392Y-95162439D01*
X160773474Y-95161868D01*
X160648062Y-95082068D01*
X160647274Y-95081557D01*
X160647111Y-95081449D01*
X160646244Y-95080862D01*
X160518574Y-94992431D01*
X160517729Y-94991832D01*
X160517570Y-94991717D01*
X160516799Y-94991148D01*
X160395700Y-94900033D01*
X160394764Y-94899312D01*
X160394574Y-94899162D01*
X160393581Y-94898357D01*
X160287883Y-94810505D01*
X160286968Y-94809727D01*
X160286804Y-94809584D01*
X160286048Y-94808911D01*
X160257479Y-94782981D01*
X160256519Y-94782087D01*
X160256315Y-94781892D01*
X160255210Y-94780802D01*
X160183684Y-94708122D01*
X160182741Y-94707138D01*
X160182561Y-94706945D01*
X160181676Y-94705971D01*
X160096957Y-94610280D01*
X160096378Y-94609615D01*
X160096272Y-94609491D01*
X160095770Y-94608895D01*
X160003455Y-94497489D01*
X160003182Y-94497156D01*
X160003103Y-94497059D01*
X160002575Y-94496400D01*
X159908257Y-94376577D01*
X159907796Y-94375982D01*
X159907725Y-94375889D01*
X159907465Y-94375546D01*
X159816742Y-94254601D01*
X159816365Y-94254091D01*
X159816289Y-94253987D01*
X159815891Y-94253435D01*
X159734356Y-94138666D01*
X159733815Y-94137889D01*
X159733716Y-94137744D01*
X159733251Y-94137051D01*
X159666502Y-94035753D01*
X159665692Y-94034483D01*
X159665534Y-94034227D01*
X159664740Y-94032895D01*
X159618370Y-93952365D01*
X159617621Y-93951019D01*
X159617480Y-93950756D01*
X159616793Y-93949426D01*
X159613767Y-93943359D01*
X159613420Y-93942651D01*
X159613338Y-93942480D01*
X159612860Y-93941453D01*
X159569997Y-93846705D01*
X159569148Y-93844716D01*
X159568990Y-93844323D01*
X159568232Y-93842319D01*
X159535958Y-93751105D01*
X159535137Y-93748575D01*
X159534992Y-93748085D01*
X159534335Y-93745643D01*
X159510986Y-93649370D01*
X159510483Y-93647064D01*
X159510395Y-93646610D01*
X159510002Y-93644299D01*
X159493914Y-93534375D01*
X159493699Y-93532713D01*
X159493662Y-93532385D01*
X159493501Y-93530711D01*
X159483010Y-93398543D01*
X159482950Y-93397692D01*
X159482938Y-93397500D01*
X159482881Y-93396406D01*
X159476581Y-93242287D01*
X159476560Y-93241663D01*
X159476557Y-93241558D01*
X159476546Y-93241114D01*
X159473589Y-93092038D01*
X159473580Y-93091370D01*
X159473579Y-93091220D01*
X159473581Y-93090363D01*
X159474814Y-92969347D01*
X159474841Y-92968122D01*
X159474849Y-92967889D01*
X159474901Y-92966743D01*
X159480814Y-92862943D01*
X159480916Y-92861509D01*
X159480940Y-92861228D01*
X159481082Y-92859808D01*
X159492168Y-92762382D01*
X159492299Y-92761329D01*
X159492326Y-92761129D01*
X159492468Y-92760150D01*
X159501043Y-92704785D01*
X159501115Y-92704330D01*
X159501137Y-92704196D01*
X159501294Y-92703292D01*
X159527258Y-92561236D01*
X159527543Y-92559794D01*
X159527596Y-92559545D01*
X159527841Y-92558453D01*
X159556288Y-92437907D01*
X159556808Y-92435891D01*
X159556921Y-92435487D01*
X159557551Y-92433406D01*
X159592099Y-92327578D01*
X159593028Y-92324976D01*
X159593225Y-92324468D01*
X159594300Y-92321905D01*
X159638569Y-92224004D01*
X159639825Y-92221423D01*
X159640085Y-92220925D01*
X159641467Y-92218449D01*
X159699076Y-92121683D01*
X159700323Y-92119695D01*
X159700577Y-92119310D01*
X159701912Y-92117385D01*
X159776482Y-92014963D01*
X159777363Y-92013788D01*
X159777554Y-92013541D01*
X159778619Y-92012210D01*
X159873768Y-91897342D01*
X159874482Y-91896499D01*
X159874598Y-91896365D01*
X159875058Y-91895842D01*
X159994407Y-91761734D01*
X159994685Y-91761424D01*
X159994723Y-91761382D01*
X159994830Y-91761264D01*
X160012751Y-91741581D01*
X160094938Y-91649988D01*
X160172481Y-91560835D01*
X160239417Y-91481200D01*
X160289642Y-91418367D01*
X160312335Y-91387131D01*
X160331036Y-91354635D01*
X160353380Y-91306885D01*
X160379585Y-91242013D01*
X160409882Y-91158569D01*
X160444650Y-91055001D01*
X160484401Y-90929493D01*
X160529563Y-90780552D01*
X160580745Y-90606117D01*
X160638404Y-90404664D01*
X160703157Y-90174102D01*
X160775554Y-89912592D01*
X160775559Y-89912578D01*
X160856069Y-89618566D01*
X160945291Y-89290034D01*
X161026174Y-88990498D01*
X161070097Y-88827555D01*
X161070102Y-88827542D01*
X161110479Y-88677516D01*
X161110478Y-88677516D01*
X161147782Y-88538057D01*
X161182329Y-88407400D01*
X161214607Y-88283151D01*
X161245130Y-88162784D01*
X161274072Y-88045126D01*
X161302149Y-87926848D01*
X161329575Y-87806645D01*
X161356904Y-87681801D01*
X161384500Y-87550409D01*
X161412800Y-87410234D01*
X161442228Y-87259109D01*
X161473264Y-87094564D01*
X161506238Y-86914923D01*
X161506239Y-86914918D01*
X161541604Y-86717848D01*
X161579787Y-86501161D01*
X161621210Y-86262708D01*
X161666278Y-86000405D01*
X161715451Y-85711895D01*
X161769114Y-85395224D01*
X161827693Y-85048213D01*
X161827695Y-85048192D01*
X161891628Y-84668579D01*
X161961324Y-84254290D01*
X162019988Y-83905507D01*
X162019988Y-83905505D01*
X162070985Y-83602392D01*
X162116038Y-83334353D01*
X162155638Y-83097928D01*
X162190271Y-82889655D01*
X162220435Y-82706040D01*
X162246576Y-82543891D01*
X162246577Y-82543883D01*
X162269279Y-82399144D01*
X162288961Y-82268816D01*
X162306135Y-82149301D01*
X162321295Y-82037110D01*
X162334949Y-81928662D01*
X162347592Y-81820454D01*
X162359710Y-81709045D01*
X162371800Y-81590899D01*
X162384359Y-81462490D01*
X162384359Y-81462486D01*
X162397885Y-81320230D01*
X162412845Y-81160941D01*
X162421683Y-81066703D01*
X162421713Y-81066392D01*
X162421714Y-81066382D01*
X162465162Y-80614227D01*
X162465193Y-80613931D01*
X162465191Y-80613931D01*
X162507538Y-80196535D01*
X162507540Y-80196535D01*
X162507577Y-80196162D01*
X162549428Y-79809639D01*
X162549481Y-79809178D01*
X162549480Y-79809178D01*
X162591455Y-79449447D01*
X162591475Y-79449282D01*
X162591481Y-79449232D01*
X162591522Y-79448896D01*
X162634245Y-79111873D01*
X162634246Y-79111873D01*
X162634329Y-79111236D01*
X162678422Y-78792840D01*
X162678527Y-78792127D01*
X162678526Y-78792127D01*
X162724612Y-78488275D01*
X162724614Y-78488275D01*
X162724734Y-78487506D01*
X162773434Y-78194115D01*
X162773579Y-78193284D01*
X162773592Y-78193213D01*
X162825511Y-77906305D01*
X162825520Y-77906253D01*
X162825660Y-77905509D01*
X162881457Y-77620794D01*
X162881583Y-77620173D01*
X162881597Y-77620106D01*
X162881611Y-77620038D01*
X162941891Y-77333539D01*
X162942051Y-77332809D01*
X162942065Y-77332747D01*
X163007426Y-77040481D01*
X163007563Y-77039882D01*
X163078673Y-76737565D01*
X163078742Y-76737274D01*
X163087295Y-76701770D01*
X163141943Y-76472636D01*
X163189399Y-76266700D01*
X163231353Y-76075395D01*
X163269455Y-75890360D01*
X163305415Y-75702926D01*
X163340980Y-75504201D01*
X163377731Y-75286176D01*
X163417406Y-75039966D01*
X163417407Y-75039955D01*
X163428888Y-74967215D01*
X163428889Y-74967215D01*
X163428901Y-74967136D01*
X163468531Y-74718371D01*
X163468583Y-74718077D01*
X163468579Y-74718076D01*
X163503923Y-74503617D01*
X163503925Y-74503617D01*
X163503995Y-74503187D01*
X163535899Y-74318600D01*
X163536006Y-74318002D01*
X163536016Y-74317948D01*
X163565317Y-74158850D01*
X163565411Y-74158355D01*
X163565425Y-74158283D01*
X163565473Y-74158040D01*
X163593034Y-74019900D01*
X163593080Y-74019671D01*
X163593099Y-74019578D01*
X163593250Y-74018864D01*
X163619910Y-73897298D01*
X163620093Y-73896495D01*
X163620119Y-73896385D01*
X163620195Y-73896069D01*
X163646798Y-73786644D01*
X163646877Y-73786324D01*
X163646906Y-73786208D01*
X163647127Y-73785353D01*
X163672887Y-73689433D01*
X163673275Y-73688065D01*
X163673350Y-73687814D01*
X163673721Y-73686627D01*
X163769247Y-73393307D01*
X163769941Y-73391318D01*
X163770091Y-73390915D01*
X163770928Y-73388810D01*
X163889918Y-73108085D01*
X163890850Y-73106016D01*
X163891042Y-73105614D01*
X163892059Y-73103601D01*
X164036538Y-72832713D01*
X164037658Y-72830722D01*
X164037882Y-72830344D01*
X164039030Y-72828498D01*
X164211025Y-72564691D01*
X164212184Y-72562990D01*
X164212423Y-72562654D01*
X164213699Y-72560938D01*
X164415235Y-72301457D01*
X164416441Y-72299963D01*
X164416681Y-72299677D01*
X164417907Y-72298270D01*
X164651010Y-72040356D01*
X164652155Y-72039130D01*
X164652380Y-72038897D01*
X164653524Y-72037749D01*
X164920218Y-71778648D01*
X164921206Y-71777713D01*
X164921408Y-71777527D01*
X164922473Y-71776574D01*
X165224785Y-71513528D01*
X165225419Y-71512986D01*
X165225539Y-71512885D01*
X165226123Y-71512401D01*
X165336225Y-71422508D01*
X165336618Y-71422190D01*
X165336678Y-71422142D01*
X165336893Y-71421971D01*
X165417905Y-71357876D01*
X165418117Y-71357710D01*
X165418186Y-71357656D01*
X165418683Y-71357271D01*
X165489808Y-71303014D01*
X165490139Y-71302764D01*
X165490239Y-71302689D01*
X165490924Y-71302184D01*
X165546289Y-71262091D01*
X165547538Y-71261215D01*
X165547775Y-71261054D01*
X165548925Y-71260296D01*
X165582658Y-71238693D01*
X165587176Y-71236115D01*
X165588084Y-71235657D01*
X165592793Y-71233574D01*
X165599417Y-71231037D01*
X165604158Y-71229484D01*
X165605103Y-71229225D01*
X165614904Y-71227548D01*
X165615882Y-71227478D01*
X165625835Y-71227743D01*
G37*
G36*
X172152305Y-76578589D02*
G01*
X172153280Y-76578685D01*
X172163070Y-76580635D01*
X172164008Y-76580920D01*
X172173173Y-76584717D01*
X172174038Y-76585179D01*
X172182299Y-76590692D01*
X172183057Y-76591313D01*
X172190159Y-76598415D01*
X172190780Y-76599173D01*
X172196293Y-76607434D01*
X172196755Y-76608299D01*
X172200552Y-76617464D01*
X172200837Y-76618402D01*
X172202788Y-76628202D01*
X172202884Y-76629179D01*
X172203127Y-76634165D01*
X172202941Y-77156818D01*
X172202941Y-77156849D01*
X172202938Y-77157371D01*
X172198734Y-77566171D01*
X172198726Y-77566696D01*
X172198724Y-77566793D01*
X172198713Y-77567252D01*
X172186666Y-77973471D01*
X172186644Y-77974080D01*
X172186640Y-77974176D01*
X172186624Y-77974539D01*
X172167137Y-78373538D01*
X172167102Y-78374164D01*
X172167096Y-78374262D01*
X172167072Y-78374630D01*
X172140551Y-78761769D01*
X172140517Y-78762231D01*
X172140509Y-78762334D01*
X172140460Y-78762926D01*
X172107310Y-79133564D01*
X172107281Y-79133875D01*
X172107270Y-79133990D01*
X172107182Y-79134840D01*
X172067808Y-79484338D01*
X172067705Y-79485189D01*
X172067688Y-79485320D01*
X172067622Y-79485806D01*
X172022429Y-79809523D01*
X172022300Y-79810389D01*
X172022275Y-79810548D01*
X172022152Y-79811295D01*
X171971547Y-80104591D01*
X171971404Y-80105383D01*
X171971370Y-80105563D01*
X171971163Y-80106601D01*
X171926779Y-80317400D01*
X171926568Y-80318356D01*
X171926532Y-80318512D01*
X171926384Y-80319136D01*
X171897459Y-80437629D01*
X171897313Y-80438210D01*
X171897284Y-80438323D01*
X171897134Y-80438895D01*
X171867054Y-80550677D01*
X171866905Y-80551219D01*
X171866871Y-80551340D01*
X171866674Y-80552023D01*
X171837349Y-80651043D01*
X171837133Y-80651753D01*
X171837084Y-80651910D01*
X171836798Y-80652798D01*
X171810139Y-80733006D01*
X171809638Y-80734441D01*
X171809537Y-80734717D01*
X171809014Y-80736084D01*
X171786932Y-80791431D01*
X171784957Y-80795777D01*
X171784528Y-80796614D01*
X171782141Y-80800774D01*
X171766545Y-80825209D01*
X171763664Y-80829270D01*
X171763058Y-80830041D01*
X171756131Y-80837259D01*
X171755386Y-80837896D01*
X171747263Y-80843570D01*
X171746409Y-80844050D01*
X171739506Y-80847275D01*
X171739020Y-80847459D01*
X171736516Y-80848333D01*
X171734488Y-80848982D01*
X171729684Y-80850264D01*
X171728726Y-80850470D01*
X171718824Y-80851599D01*
X171717844Y-80851614D01*
X171707902Y-80850786D01*
X171706937Y-80850609D01*
X171697387Y-80847870D01*
X171696476Y-80847509D01*
X171687613Y-80842945D01*
X171686790Y-80842413D01*
X171678214Y-80835437D01*
X171677373Y-80834585D01*
X171673357Y-80829995D01*
X171659887Y-80812595D01*
X171656352Y-80807391D01*
X171655724Y-80806331D01*
X171652873Y-80800765D01*
X171632592Y-80754314D01*
X171631896Y-80752639D01*
X171631761Y-80752297D01*
X171631090Y-80750498D01*
X171607569Y-80683614D01*
X171607271Y-80682741D01*
X171607214Y-80682569D01*
X171606935Y-80681701D01*
X171597445Y-80651244D01*
X171597227Y-80650526D01*
X171597188Y-80650394D01*
X171597007Y-80649767D01*
X171535787Y-80432326D01*
X171535519Y-80431337D01*
X171535473Y-80431160D01*
X171535270Y-80430352D01*
X171481056Y-80206741D01*
X171480870Y-80205943D01*
X171480831Y-80205770D01*
X171480623Y-80204806D01*
X171432013Y-79967843D01*
X171431843Y-79966977D01*
X171431814Y-79966822D01*
X171431687Y-79966113D01*
X171387279Y-79708614D01*
X171387210Y-79708205D01*
X171387189Y-79708077D01*
X171387051Y-79707186D01*
X171345446Y-79421968D01*
X171345376Y-79421471D01*
X171345365Y-79421390D01*
X171345322Y-79421068D01*
X171321898Y-79239915D01*
X171321862Y-79239625D01*
X171321852Y-79239544D01*
X171321789Y-79239011D01*
X171289400Y-78951713D01*
X171289327Y-78951022D01*
X171289318Y-78950931D01*
X171289295Y-78950697D01*
X171259622Y-78635814D01*
X171259564Y-78635153D01*
X171259558Y-78635079D01*
X171259551Y-78634985D01*
X171233236Y-78302745D01*
X171233218Y-78302515D01*
X171233213Y-78302448D01*
X171233181Y-78302000D01*
X171210866Y-77962627D01*
X171210850Y-77962367D01*
X171210846Y-77962301D01*
X171210823Y-77961894D01*
X171193149Y-77625616D01*
X171193126Y-77625125D01*
X171193123Y-77625055D01*
X171193113Y-77624828D01*
X171180721Y-77301871D01*
X171180716Y-77301736D01*
X171180713Y-77301652D01*
X171180693Y-77300936D01*
X171174226Y-77001524D01*
X171174218Y-77001095D01*
X171174217Y-77001019D01*
X171174214Y-77000675D01*
X171173406Y-76873847D01*
X171173405Y-76873523D01*
X171173405Y-76873495D01*
X171173220Y-76634188D01*
X171173459Y-76629228D01*
X171173554Y-76628252D01*
X171175495Y-76618452D01*
X171175779Y-76617514D01*
X171179590Y-76608302D01*
X171180052Y-76607437D01*
X171185565Y-76599176D01*
X171186186Y-76598418D01*
X171193232Y-76591362D01*
X171193989Y-76590740D01*
X171202244Y-76585214D01*
X171203108Y-76584751D01*
X171212335Y-76580921D01*
X171213273Y-76580636D01*
X171223032Y-76578690D01*
X171224011Y-76578593D01*
X171229020Y-76578345D01*
X172147327Y-76578345D01*
X172152305Y-76578589D01*
G37*
G36*
X169580608Y-70871579D02*
G01*
X169587013Y-70872077D01*
X169588269Y-70872255D01*
X169594622Y-70873573D01*
X169674684Y-70895609D01*
X169679456Y-70897181D01*
X169680378Y-70897536D01*
X169684974Y-70899571D01*
X169775697Y-70945258D01*
X169778486Y-70946774D01*
X169779018Y-70947085D01*
X169781639Y-70948727D01*
X169889240Y-71020758D01*
X169890355Y-71021526D01*
X169890561Y-71021672D01*
X169891540Y-71022383D01*
X169930725Y-71051581D01*
X170080977Y-71154791D01*
X170216222Y-71223365D01*
X170344364Y-71260958D01*
X170474092Y-71270452D01*
X170615307Y-71252982D01*
X170718474Y-71226691D01*
X170723349Y-71225700D01*
X170724318Y-71225552D01*
X170735437Y-71225087D01*
X170736642Y-71225169D01*
X170742731Y-71225956D01*
X170761134Y-71229474D01*
X170765955Y-71230642D01*
X170766895Y-71230919D01*
X170776162Y-71234675D01*
X170777030Y-71235131D01*
X170785609Y-71240816D01*
X170786419Y-71241480D01*
X170790351Y-71245063D01*
X170813681Y-71268676D01*
X170817109Y-71272517D01*
X170817742Y-71273303D01*
X170820750Y-71277449D01*
X170852094Y-71325593D01*
X170853094Y-71327194D01*
X170853284Y-71327511D01*
X170854215Y-71329131D01*
X170896658Y-71406241D01*
X170896921Y-71406726D01*
X170896980Y-71406836D01*
X170897316Y-71407472D01*
X170924827Y-71460555D01*
X171070426Y-71724913D01*
X171241331Y-72000563D01*
X171431097Y-72278273D01*
X171632696Y-72547875D01*
X171839447Y-72799702D01*
X171902982Y-72872004D01*
X171928454Y-72900315D01*
X171926243Y-72893006D01*
X171903139Y-72818127D01*
X171903140Y-72818127D01*
X171903119Y-72818061D01*
X171850996Y-72648390D01*
X171850901Y-72648063D01*
X171850898Y-72648064D01*
X171798973Y-72475286D01*
X171798885Y-72474991D01*
X171748304Y-72303249D01*
X171748305Y-72303249D01*
X171748220Y-72302963D01*
X171700128Y-72136397D01*
X171700046Y-72136097D01*
X171700043Y-72136098D01*
X171655587Y-71978848D01*
X171655589Y-71978847D01*
X171655492Y-71978509D01*
X171615818Y-71834717D01*
X171615704Y-71834292D01*
X171615703Y-71834292D01*
X171581956Y-71708098D01*
X171581795Y-71707488D01*
X171555121Y-71603032D01*
X171554998Y-71602537D01*
X171554975Y-71602443D01*
X171554865Y-71601984D01*
X171536410Y-71523408D01*
X171536156Y-71522270D01*
X171536109Y-71522047D01*
X171535884Y-71520918D01*
X171526794Y-71472361D01*
X171526122Y-71467461D01*
X171526037Y-71466494D01*
X171525844Y-71461572D01*
X171525978Y-71447216D01*
X171526269Y-71442245D01*
X171526374Y-71441271D01*
X171528420Y-71431478D01*
X171528714Y-71430543D01*
X171532586Y-71421441D01*
X171533056Y-71420580D01*
X171538700Y-71412302D01*
X171539329Y-71411551D01*
X171546394Y-71404617D01*
X171547157Y-71404002D01*
X171555587Y-71398490D01*
X171556471Y-71398030D01*
X171561079Y-71395917D01*
X171591941Y-71383591D01*
X171596664Y-71381970D01*
X171597611Y-71381696D01*
X171602502Y-71380539D01*
X171662564Y-71369444D01*
X171664235Y-71369164D01*
X171664574Y-71369113D01*
X171666349Y-71368878D01*
X171745737Y-71359783D01*
X171747026Y-71359652D01*
X171747240Y-71359633D01*
X171748126Y-71359562D01*
X171836967Y-71353238D01*
X171837756Y-71353188D01*
X171837954Y-71353177D01*
X171839173Y-71353124D01*
X171927591Y-71350339D01*
X171928991Y-71350314D01*
X171929246Y-71350313D01*
X171930436Y-71350323D01*
X172008559Y-71351847D01*
X172010291Y-71351910D01*
X172010645Y-71351929D01*
X172012516Y-71352064D01*
X172053513Y-71355787D01*
X172055696Y-71356033D01*
X172056112Y-71356089D01*
X172058157Y-71356407D01*
X172138919Y-71370648D01*
X172140417Y-71370935D01*
X172140711Y-71370996D01*
X172142197Y-71371328D01*
X172221790Y-71390346D01*
X172223350Y-71390745D01*
X172223658Y-71390829D01*
X172225225Y-71391283D01*
X172261888Y-71402558D01*
X172351753Y-71425699D01*
X172472057Y-71443880D01*
X172616991Y-71457032D01*
X172777648Y-71464763D01*
X172945870Y-71466884D01*
X173113366Y-71463257D01*
X173272001Y-71453791D01*
X173413609Y-71438455D01*
X173512046Y-71421414D01*
X173606395Y-71401278D01*
X173607504Y-71401054D01*
X173607709Y-71401015D01*
X173608677Y-71400841D01*
X173672514Y-71389973D01*
X173677338Y-71389387D01*
X173678296Y-71389317D01*
X173683203Y-71389196D01*
X173722317Y-71390124D01*
X173727336Y-71390493D01*
X173728308Y-71390613D01*
X173737946Y-71392770D01*
X173738877Y-71393076D01*
X173748109Y-71397167D01*
X173748975Y-71397659D01*
X173753226Y-71400361D01*
X173774463Y-71415390D01*
X173778383Y-71418463D01*
X173779124Y-71419105D01*
X173785983Y-71426343D01*
X173786584Y-71427117D01*
X173792449Y-71436694D01*
X173792975Y-71437815D01*
X173795305Y-71443711D01*
X173805508Y-71475146D01*
X173806811Y-71479953D01*
X173807019Y-71480902D01*
X173807836Y-71485730D01*
X173813848Y-71535872D01*
X173813857Y-71535947D01*
X173813944Y-71536720D01*
X173815363Y-71550298D01*
X173815470Y-71551445D01*
X173815486Y-71551641D01*
X173815547Y-71552478D01*
X173818637Y-71600000D01*
X173818659Y-71600356D01*
X173818667Y-71600494D01*
X173818717Y-71601548D01*
X173821729Y-71682600D01*
X173821746Y-71683228D01*
X173821748Y-71683228D01*
X173824566Y-71792040D01*
X173824567Y-71792073D01*
X173824581Y-71792637D01*
X173827106Y-71924110D01*
X173827109Y-71924386D01*
X173827110Y-71924386D01*
X173829224Y-72072751D01*
X173829220Y-72072751D01*
X173829227Y-72072990D01*
X173830818Y-72232700D01*
X173830819Y-72232896D01*
X173830820Y-72232896D01*
X173831557Y-72347020D01*
X173832883Y-72538722D01*
X173834129Y-72638688D01*
X173847892Y-72583386D01*
X173882173Y-72440000D01*
X173917047Y-72288897D01*
X173950989Y-72136541D01*
X173982648Y-71988644D01*
X174010533Y-71851534D01*
X174026678Y-71767175D01*
X174101446Y-71363516D01*
X174102594Y-71358662D01*
X174102866Y-71357721D01*
X174106536Y-71348509D01*
X174106986Y-71347638D01*
X174112430Y-71339247D01*
X174113042Y-71338481D01*
X174120025Y-71331318D01*
X174120775Y-71330687D01*
X174128915Y-71325093D01*
X174129773Y-71324619D01*
X174139244Y-71320579D01*
X174140237Y-71320270D01*
X174145369Y-71318962D01*
X174202206Y-71307595D01*
X174204958Y-71307123D01*
X174205502Y-71307045D01*
X174208271Y-71306725D01*
X174333606Y-71295726D01*
X174337732Y-71295533D01*
X174338538Y-71295528D01*
X174342603Y-71295666D01*
X174490799Y-71306635D01*
X174493665Y-71306929D01*
X174494236Y-71307004D01*
X174497172Y-71307477D01*
X174636422Y-71334136D01*
X174637530Y-71334361D01*
X174637749Y-71334408D01*
X174638868Y-71334661D01*
X174724143Y-71354987D01*
X174805176Y-71373764D01*
X174866190Y-71387349D01*
X174872580Y-71388702D01*
X174874199Y-71389073D01*
X174874520Y-71389152D01*
X174876154Y-71389583D01*
X174927212Y-71403966D01*
X174931938Y-71405551D01*
X174932851Y-71405908D01*
X174943183Y-71411395D01*
X174944271Y-71412145D01*
X174949544Y-71416320D01*
X174973587Y-71438099D01*
X174977123Y-71441634D01*
X174977781Y-71442360D01*
X174983714Y-71450361D01*
X174984218Y-71451202D01*
X174988689Y-71460815D01*
X174989051Y-71461869D01*
X174990595Y-71467344D01*
X174999521Y-71507490D01*
X175000097Y-71510510D01*
X175000191Y-71511099D01*
X175000576Y-71514070D01*
X175000703Y-71515345D01*
X175000879Y-71517635D01*
X175000904Y-71518097D01*
X175000977Y-71520499D01*
X175001156Y-71547018D01*
X175000997Y-71551384D01*
X175000929Y-71552240D01*
X175000398Y-71556565D01*
X174995180Y-71587887D01*
X174994487Y-71591315D01*
X174994329Y-71591978D01*
X174993420Y-71595293D01*
X174981483Y-71633663D01*
X174980714Y-71635941D01*
X174980551Y-71636389D01*
X174979663Y-71638659D01*
X174959684Y-71686320D01*
X174959075Y-71687714D01*
X174958944Y-71688002D01*
X174958217Y-71689532D01*
X174928871Y-71748728D01*
X174928396Y-71749663D01*
X174928300Y-71749847D01*
X174927799Y-71750783D01*
X174887765Y-71823758D01*
X174887334Y-71824528D01*
X174887266Y-71824647D01*
X174887011Y-71825088D01*
X174834964Y-71914085D01*
X174834623Y-71914658D01*
X174834576Y-71914736D01*
X174834442Y-71914958D01*
X174769061Y-72022222D01*
X174768948Y-72022406D01*
X174768916Y-72022458D01*
X174768703Y-72022802D01*
X174688663Y-72150576D01*
X174688621Y-72150642D01*
X174688599Y-72150677D01*
X174688418Y-72150963D01*
X174592397Y-72301491D01*
X174592395Y-72301490D01*
X174592233Y-72301748D01*
X174478907Y-72477274D01*
X174478796Y-72477443D01*
X174478797Y-72477443D01*
X174346844Y-72680210D01*
X174346772Y-72680317D01*
X174346773Y-72680318D01*
X174194870Y-72912571D01*
X174194868Y-72912570D01*
X174194840Y-72912619D01*
X174138955Y-72997874D01*
X174138954Y-72997873D01*
X174138900Y-72997958D01*
X173979542Y-73240113D01*
X173979443Y-73240259D01*
X173979444Y-73240260D01*
X173822922Y-73476473D01*
X173822822Y-73476621D01*
X173822823Y-73476622D01*
X173671432Y-73703507D01*
X173671431Y-73703506D01*
X173671326Y-73703665D01*
X173527360Y-73917836D01*
X173527240Y-73918012D01*
X173527241Y-73918013D01*
X173392996Y-74116083D01*
X173392870Y-74116268D01*
X173392857Y-74116287D01*
X173392852Y-74116294D01*
X173270622Y-74294877D01*
X173270435Y-74295145D01*
X173270436Y-74295146D01*
X173162516Y-74450856D01*
X173162515Y-74450855D01*
X173162252Y-74451235D01*
X173070936Y-74580685D01*
X173070710Y-74581003D01*
X173070672Y-74581056D01*
X173070515Y-74581274D01*
X173000706Y-74677558D01*
X173000080Y-74678402D01*
X172999946Y-74678579D01*
X172999209Y-74679529D01*
X172911328Y-74790070D01*
X172909675Y-74792044D01*
X172909341Y-74792423D01*
X172907598Y-74794303D01*
X172826690Y-74877268D01*
X172824149Y-74879700D01*
X172823637Y-74880157D01*
X172820982Y-74882369D01*
X172739072Y-74946026D01*
X172735649Y-74948466D01*
X172734959Y-74948916D01*
X172731368Y-74951053D01*
X172573334Y-75036489D01*
X172569837Y-75038209D01*
X172569134Y-75038522D01*
X172565486Y-75039980D01*
X172381124Y-75105511D01*
X172378108Y-75106478D01*
X172377501Y-75106652D01*
X172374354Y-75107447D01*
X172171710Y-75151753D01*
X172168846Y-75152293D01*
X172168287Y-75152382D01*
X172165467Y-75152751D01*
X171952585Y-75174517D01*
X171949782Y-75174725D01*
X171949224Y-75174751D01*
X171946365Y-75174804D01*
X171731291Y-75172709D01*
X171728324Y-75172593D01*
X171727753Y-75172554D01*
X171724917Y-75172280D01*
X171532568Y-75148247D01*
X171529465Y-75147762D01*
X171528849Y-75147646D01*
X171525690Y-75146946D01*
X171292766Y-75087510D01*
X171289159Y-75086446D01*
X171288456Y-75086210D01*
X171284921Y-75084875D01*
X171079788Y-74998562D01*
X171075842Y-74996698D01*
X171075091Y-74996303D01*
X171071404Y-74994162D01*
X170894414Y-74881176D01*
X170890599Y-74878486D01*
X170889866Y-74877917D01*
X170886241Y-74874819D01*
X170737743Y-74735367D01*
X170735037Y-74732626D01*
X170734532Y-74732074D01*
X170732103Y-74729214D01*
X170661198Y-74639177D01*
X170659900Y-74637455D01*
X170659652Y-74637111D01*
X170658427Y-74635333D01*
X170582712Y-74520303D01*
X170582217Y-74519536D01*
X170582105Y-74519359D01*
X170581470Y-74518328D01*
X170492740Y-74370413D01*
X170492382Y-74369808D01*
X170492314Y-74369691D01*
X170491982Y-74369110D01*
X170391934Y-74191627D01*
X170391731Y-74191263D01*
X170391684Y-74191178D01*
X170391409Y-74190674D01*
X170281740Y-73986938D01*
X170281343Y-73986185D01*
X170163751Y-73759513D01*
X170163734Y-73759481D01*
X170163705Y-73759425D01*
X170163428Y-73758881D01*
X170039611Y-73512590D01*
X170039561Y-73512491D01*
X170039536Y-73512441D01*
X170039333Y-73512030D01*
X169910988Y-73249435D01*
X169910976Y-73249410D01*
X169910736Y-73248914D01*
X169779560Y-72973333D01*
X169779395Y-72972983D01*
X169779374Y-72972938D01*
X169779324Y-72972830D01*
X169647016Y-72687577D01*
X169647009Y-72687561D01*
X169646990Y-72687520D01*
X169646806Y-72687119D01*
X169538774Y-72448581D01*
X169538659Y-72448322D01*
X169538658Y-72448323D01*
X169445740Y-72240357D01*
X169445672Y-72240197D01*
X169445670Y-72240198D01*
X169367754Y-72064345D01*
X169367758Y-72064343D01*
X169367628Y-72064060D01*
X169303413Y-71916920D01*
X169303208Y-71916442D01*
X169303207Y-71916442D01*
X169251388Y-71794616D01*
X169251203Y-71794175D01*
X169251174Y-71794105D01*
X169251064Y-71793836D01*
X169210341Y-71693925D01*
X169210158Y-71693471D01*
X169210114Y-71693360D01*
X169209852Y-71692686D01*
X169178920Y-71611290D01*
X169178617Y-71610471D01*
X169178555Y-71610299D01*
X169178228Y-71609364D01*
X169155785Y-71543082D01*
X169155328Y-71541663D01*
X169155249Y-71541405D01*
X169154899Y-71540211D01*
X169139643Y-71485646D01*
X169139179Y-71483859D01*
X169139094Y-71483506D01*
X169138694Y-71481704D01*
X169129321Y-71435455D01*
X169128952Y-71433424D01*
X169128885Y-71433007D01*
X169128580Y-71430797D01*
X169123789Y-71389465D01*
X169123607Y-71387599D01*
X169123579Y-71387243D01*
X169123472Y-71385499D01*
X169122056Y-71353404D01*
X169122026Y-71349758D01*
X169122046Y-71349036D01*
X169122283Y-71345347D01*
X169135471Y-71214546D01*
X169136573Y-71207974D01*
X169136872Y-71206707D01*
X169138801Y-71200398D01*
X169181191Y-71088360D01*
X169184321Y-71081622D01*
X169185031Y-71080347D01*
X169189115Y-71074132D01*
X169257496Y-70985037D01*
X169260702Y-70981257D01*
X169261372Y-70980541D01*
X169267392Y-70975063D01*
X169267877Y-70974688D01*
X169270389Y-70972865D01*
X169361549Y-70910890D01*
X169365810Y-70908290D01*
X169366671Y-70907821D01*
X169374207Y-70904478D01*
X169374822Y-70904263D01*
X169378023Y-70903261D01*
X169488750Y-70872585D01*
X169492613Y-70871676D01*
X169493379Y-70871527D01*
X169497298Y-70870922D01*
X169497848Y-70870859D01*
X169501171Y-70870588D01*
X169501811Y-70870557D01*
X169504992Y-70870503D01*
X169580608Y-70871579D01*
G37*
G36*
X167200747Y-63034374D02*
G01*
X167201717Y-63034508D01*
X167211388Y-63036827D01*
X167212315Y-63037148D01*
X167221408Y-63041341D01*
X167222253Y-63041837D01*
X167230886Y-63048220D01*
X167231725Y-63048990D01*
X167235758Y-63053138D01*
X167250543Y-63070190D01*
X167253692Y-63074215D01*
X167254271Y-63075037D01*
X167257004Y-63079365D01*
X167283382Y-63126207D01*
X167284014Y-63127364D01*
X167284131Y-63127585D01*
X167284695Y-63128682D01*
X167319688Y-63198846D01*
X167320050Y-63199586D01*
X167320106Y-63199703D01*
X167320314Y-63200143D01*
X167360945Y-63287162D01*
X167360991Y-63287262D01*
X167361030Y-63287346D01*
X167361375Y-63288106D01*
X167404667Y-63385511D01*
X167404908Y-63386061D01*
X167404942Y-63386140D01*
X167405047Y-63386386D01*
X167448022Y-63487708D01*
X167448084Y-63487854D01*
X167448121Y-63487942D01*
X167448430Y-63488695D01*
X167488111Y-63587467D01*
X167488288Y-63587913D01*
X167488322Y-63588000D01*
X167488491Y-63588439D01*
X167507561Y-63638602D01*
X167507997Y-63639793D01*
X167508073Y-63640009D01*
X167508415Y-63641013D01*
X167642424Y-64048874D01*
X167643031Y-64050858D01*
X167643142Y-64051249D01*
X167643663Y-64053238D01*
X167741201Y-64458614D01*
X167741661Y-64460719D01*
X167741743Y-64461137D01*
X167742116Y-64463279D01*
X167804500Y-64873517D01*
X167804768Y-64875557D01*
X167804814Y-64875972D01*
X167805007Y-64878144D01*
X167833551Y-65300595D01*
X167833625Y-65301952D01*
X167833636Y-65302222D01*
X167833673Y-65303613D01*
X167835918Y-65472057D01*
X167835922Y-65473015D01*
X167835921Y-65473196D01*
X167835909Y-65474076D01*
X167829561Y-65751711D01*
X167829508Y-65753142D01*
X167829494Y-65753416D01*
X167829407Y-65754769D01*
X167809850Y-66005859D01*
X167809679Y-66007640D01*
X167809641Y-66007975D01*
X167809430Y-66009600D01*
X167775017Y-66244925D01*
X167774726Y-66246698D01*
X167774661Y-66247054D01*
X167774290Y-66248893D01*
X167723379Y-66479236D01*
X167722987Y-66480880D01*
X167722904Y-66481204D01*
X167722451Y-66482856D01*
X167653395Y-66718995D01*
X167653151Y-66719803D01*
X167653101Y-66719964D01*
X167652838Y-66720787D01*
X167638972Y-66762892D01*
X167638566Y-66764075D01*
X167638485Y-66764302D01*
X167638071Y-66765421D01*
X167547425Y-67001753D01*
X167546693Y-67003557D01*
X167546538Y-67003919D01*
X167545689Y-67005796D01*
X167433908Y-67240112D01*
X167433053Y-67241821D01*
X167432879Y-67242153D01*
X167431966Y-67243818D01*
X167304598Y-67466206D01*
X167303545Y-67467962D01*
X167303331Y-67468303D01*
X167302209Y-67470013D01*
X167164804Y-67670558D01*
X167163552Y-67672306D01*
X167163301Y-67672641D01*
X167162006Y-67674296D01*
X167057403Y-67802495D01*
X167056732Y-67803300D01*
X167056595Y-67803461D01*
X167055875Y-67804289D01*
X166970761Y-67900045D01*
X166967259Y-67903614D01*
X166966539Y-67904279D01*
X166958604Y-67910282D01*
X166957768Y-67910794D01*
X166948817Y-67915134D01*
X166947898Y-67915473D01*
X166938248Y-67917989D01*
X166937280Y-67918142D01*
X166927381Y-67918727D01*
X166926401Y-67918689D01*
X166916500Y-67917321D01*
X166915547Y-67917092D01*
X166906118Y-67913818D01*
X166905228Y-67913407D01*
X166896672Y-67908389D01*
X166895879Y-67907813D01*
X166888415Y-67901178D01*
X166887750Y-67900458D01*
X166881747Y-67892523D01*
X166881235Y-67891687D01*
X166876895Y-67882736D01*
X166876556Y-67881817D01*
X166874137Y-67872759D01*
X166873992Y-67871907D01*
X166873443Y-67867550D01*
X166849427Y-67575678D01*
X166828582Y-67362360D01*
X166800169Y-67131560D01*
X166765392Y-66889861D01*
X166725532Y-66644356D01*
X166681779Y-66401522D01*
X166635460Y-66168614D01*
X166587817Y-65952379D01*
X166540172Y-65759865D01*
X166493748Y-65597631D01*
X166480218Y-65555796D01*
X166423856Y-65387287D01*
X166422504Y-65382467D01*
X166422286Y-65381511D01*
X166421036Y-65371669D01*
X166421008Y-65370690D01*
X166421702Y-65360744D01*
X166421866Y-65359777D01*
X166424307Y-65350644D01*
X166424610Y-65349825D01*
X166426318Y-65345760D01*
X166509823Y-65168922D01*
X166559944Y-65053233D01*
X166616709Y-64905811D01*
X166678319Y-64732612D01*
X166742672Y-64540444D01*
X166807746Y-64335980D01*
X166871571Y-64125748D01*
X166932183Y-63916272D01*
X166987593Y-63714170D01*
X167035808Y-63526127D01*
X167074885Y-63358664D01*
X167102884Y-63218388D01*
X167110428Y-63172236D01*
X167110614Y-63171171D01*
X167110647Y-63170993D01*
X167110792Y-63170242D01*
X167121557Y-63116688D01*
X167122436Y-63113025D01*
X167122635Y-63112313D01*
X167123775Y-63108746D01*
X167135668Y-63075784D01*
X167137579Y-63071202D01*
X167138000Y-63070317D01*
X167144489Y-63060054D01*
X167145377Y-63058964D01*
X167150281Y-63053745D01*
X167155723Y-63048715D01*
X167159575Y-63045492D01*
X167160357Y-63044901D01*
X167168808Y-63039726D01*
X167169690Y-63039298D01*
X167179060Y-63035842D01*
X167180008Y-63035595D01*
X167189812Y-63034043D01*
X167190791Y-63033985D01*
X167200747Y-63034374D01*
G37*
M02*
